#N canvas 338 99 364 487 10;
#X obj 21 92 routeOSC /pd;
#X obj 21 121 routeOSC /unitd /devices;
#X obj 21 55 unpackOSC;
#X obj 125 41 unpack 0 0 0 0;
#X floatatom 125 64 3 0 0 0 - - -;
#X floatatom 160 64 3 0 0 0 - - -;
#X floatatom 196 64 3 0 0 0 - - -;
#X floatatom 232 64 3 0 0 0 - - -;
#X text 92 63 from;
#X obj 21 371 bng 15 250 50 0 empty empty empty 0 -6 0 10 -262144 -1
-1;
#X obj 83 372 bng 15 250 50 0 empty empty empty 0 -6 0 10 -262144 -1
-1;
#X obj 145 372 bng 15 250 50 0 empty empty empty 0 -6 0 10 -262144
-1 -1;
#X obj 207 371 bng 15 250 50 0 empty empty empty 0 -6 0 10 -262144
-1 -1;
#X obj 21 17 udpreceive 8880;
#X text 19 395 osc receive address for rc-unitd deamon events;
#X text 108 154 change names to match joystick addresses;
#X text 89 281 if no match in joy_names.conf;
#X text 89 299 the kernel name ie "js#" is used;
#X obj 91 184 unit-joystick-gui js1;
#X obj 21 337 routeOSC /insert /removal /ready /shutdown;
#X text 18 441 Dan Wilcox 2009;
#X text 18 458 robotcowboy.com | danomatika.com;
#X connect 0 0 1 0;
#X connect 1 0 19 0;
#X connect 1 1 18 0;
#X connect 2 0 0 0;
#X connect 3 0 4 0;
#X connect 3 1 5 0;
#X connect 3 2 6 0;
#X connect 3 3 7 0;
#X connect 13 0 2 0;
#X connect 13 1 3 0;
#X connect 19 0 9 0;
#X connect 19 1 10 0;
#X connect 19 2 11 0;
#X connect 19 3 12 0;
