#N canvas 216 124 400 442 10;
#X declare -lib mrpeach;
#X obj 21 55 unpackOSC;
#X obj 125 41 unpack 0 0 0 0;
#X floatatom 125 64 3 0 0 0 - - -;
#X floatatom 160 64 3 0 0 0 - - -;
#X floatatom 196 64 3 0 0 0 - - -;
#X floatatom 232 64 3 0 0 0 - - -;
#X text 92 63 from;
#X obj 21 369 bng 15 250 50 0 empty empty empty 0 -6 0 10 -262144 -1
-1;
#X obj 83 371 bng 15 250 50 0 empty empty empty 0 -6 0 10 -262144 -1
-1;
#X obj 145 371 bng 15 250 50 0 empty empty empty 0 -6 0 10 -262144
-1 -1;
#X obj 207 371 bng 15 250 50 0 empty empty empty 0 -6 0 10 -262144
-1 -1;
#X text 17 407 osc receive address for rc-unitd deamon events;
#X text 141 150 change names to match joystick addresses;
#X obj 293 13 import mrpeach;
#X obj 21 335 routeOSC /insert /removal /ready /shutdown;
#X obj 21 17 udpreceive 8880;
#X obj 142 231 print axis;
#X obj 274 211 print button;
#X obj 115 176 unit-joystick /js0;
#X obj 115 260 unpack;
#X floatatom 115 287 5 0 0 0 num - -;
#X floatatom 178 289 5 0 0 0 val - -;
#X floatatom 249 291 5 0 0 0 num - -;
#X floatatom 313 292 5 0 0 0 val - -;
#X obj 249 264 unpack;
#X obj 21 123 routeOSC /notifications /devices;
#X obj 21 92 routeOSC /rc-unitd;
#X connect 0 0 26 0;
#X connect 1 0 2 0;
#X connect 1 1 3 0;
#X connect 1 2 4 0;
#X connect 1 3 5 0;
#X connect 14 0 7 0;
#X connect 14 1 8 0;
#X connect 14 2 9 0;
#X connect 14 3 10 0;
#X connect 15 0 0 0;
#X connect 15 1 1 0;
#X connect 18 0 16 0;
#X connect 18 0 19 0;
#X connect 18 1 17 0;
#X connect 18 1 24 0;
#X connect 19 0 20 0;
#X connect 19 1 21 0;
#X connect 24 0 22 0;
#X connect 24 1 23 0;
#X connect 25 0 14 0;
#X connect 25 1 18 0;
#X connect 26 0 25 0;
