#N canvas 119 41 717 464 10;
#X obj 118 391 print axis;
#X obj 30 421 print button;
#X text 488 421 robotcowboy.com | danomatika.com;
#X floatatom 600 135 0 0 0 0 - - - 0;
#X floatatom 600 252 0 0 0 0 - - - 0;
#X text 496 39 sends named after OSC dev name;
#X obj 543 77 r gc0-button;
#X obj 543 195 r gc0-axis;
#X symbolatom 543 157 0 0 0 0 - - - 0;
#X obj 543 107 unpack s f;
#X symbolatom 543 277 0 0 0 0 - - - 0;
#X obj 543 224 unpack s f;
#X text 264 88 change dev name;
#X msg 233 174 norm;
#X msg 253 224 midi;
#X text 222 262 creation args: OSC dev name (required) \, axis range;
#X obj 30 132 route devices;
#X obj 30 102 route joyosc;
#X obj 135 43 tgl 15 0 empty empty print_all_messages 17 7 0 10 #fcfcfc #000000 #000000 0 1;
#X obj 30 262 g_controller gc0;
#N canvas 0 22 418 314 oscreceive 0;
#X obj 110 131 oscparse;
#X obj 110 160 list trim;
#X obj 130 233 spigot;
#X obj 110 285 outlet;
#X obj 163 199 inlet;
#X obj 130 259 print OSC;
#X msg 175 70 listen 8880;
#X msg 110 69 listen 0;
#X obj 110 43 sel 0;
#X obj 110 104 netreceive -u -b;
#X obj 110 14 inlet;
#X connect 0 0 1 0;
#X connect 1 0 2 0;
#X connect 1 0 3 0;
#X connect 2 0 5 0;
#X connect 4 0 2 1;
#X connect 6 0 9 0;
#X connect 7 0 9 0;
#X connect 8 0 7 0;
#X connect 8 1 6 0;
#X connect 9 0 0 0;
#X connect 10 0 8 0;
#X coords 0 314 1 313 140 40 0;
#X restore 30 72 pd oscreceive 8880;
#X msg 207 87 set gc0;
#X obj 30 42 tgl 15 0 empty empty listen 17 7 0 10 #fcfcfc #000000 #000000 0 1;
#X text 27 7 j_controller gui wrapper;
#X obj 207 361 print extra;
#X text 271 175 0 - 1 normalize;
#X text 286 199 -1 - 1 signed normalize;
#X text 290 225 0 - 127 MIDI;
#X msg 243 198 snorm;
#X text 286 361 touchpad \, sensor;
#X text 488 404 Dan Wilcox 2009 \, 2015 \, 2024;
#X obj 543 312 r gc0-extra;
#X listbox 543 364 20 0 0 0 - - - 0;
#X obj 543 337 list;
#X text 275 147 -32768 - 32767;
#X msg 221 147 default;
#X text 219 120 axis range (if not using joyosc -n/--normalize);
#X connect 6 0 9 0;
#X connect 7 0 11 0;
#X connect 9 0 8 0;
#X connect 9 1 3 0;
#X connect 11 0 10 0;
#X connect 11 1 4 0;
#X connect 13 0 19 1;
#X connect 14 0 19 1;
#X connect 16 0 19 0;
#X connect 17 0 16 0;
#X connect 18 0 20 1;
#X connect 19 0 1 0;
#X connect 19 1 0 0;
#X connect 19 2 24 0;
#X connect 20 0 17 0;
#X connect 21 0 19 1;
#X connect 22 0 20 0;
#X connect 28 0 19 1;
#X connect 31 0 33 0;
#X connect 33 0 32 0;
#X connect 35 0 19 1;
