#N canvas 583 44 321 244 10;
#X obj 143 193 outlet;
#X obj 56 193 outlet;
#X obj 56 96 inlet OSC in;
#X obj 161 96 inlet joy name;
#X obj 1 17 cnv 15 128 43 empty empty empty 20 12 0 14 -233017 -66577
0;
#X obj 29 23 nbx 2 14 -1e+37 1e+37 0 0 empty \$0-button btn -20 6 0
10 -261234 -1 -1 0 256;
#X obj 29 42 nbx 2 14 -1e+37 1e+37 0 0 empty \$0-axis axis -25 6 0
10 -204786 -1 -1 0 256;
#X obj 64 42 nbx 6 14 -1e+37 1e+37 0 0 empty \$0-axis-value empty 0
-6 0 10 -228856 -1 -1 0 256;
#N canvas 702 431 201 175 button 0;
#X obj 13 16 inlet;
#X obj 13 151 outlet;
#X obj 29 65 unpack f f;
#X obj 29 119 s \$0-button;
#X obj 86 95 s \$0-button-value;
#X connect 0 0 2 0;
#X connect 0 0 1 0;
#X connect 2 0 3 0;
#X connect 2 1 4 0;
#X restore 56 165 pd button;
#N canvas 537 450 210 193 axis 0;
#X obj 16 6 inlet;
#X obj 50 71 unpack f f;
#X obj 50 129 s \$0-axis;
#X obj 107 102 s \$0-axis-value;
#X obj 16 155 outlet;
#X connect 0 0 1 0;
#X connect 0 0 4 0;
#X connect 1 0 2 0;
#X connect 1 1 3 0;
#X restore 143 166 pd axis;
#X obj 56 133 j_controller \$1;
#X symbolatom 64 24 10 0 0 0 - - -, f 10;
#X text 145 25 j_controller gui wrapper;
#X connect 2 0 10 0;
#X connect 3 0 10 1;
#X connect 8 0 1 0;
#X connect 9 0 0 0;
#X connect 10 0 8 0;
#X connect 10 1 9 0;
#X coords 0 -1 1 1 130 62 1 0 0;
