#N canvas 92 124 679 529 10;
#X obj 74 460 print axis;
#X obj 33 486 print button;
#X text 253 490 robotcowboy.com | danomatika.com;
#X obj 115 431 print hat;
#X obj 156 404 print ball;
#X obj 33 144 route devices;
#X obj 33 114 route joyosc;
#X text 213 114 change dev name;
#X msg 192 246 midi;
#X text 229 247 0 - 127;
#X obj 138 53 tgl 15 0 empty empty print_all_messages 17 7 0 10 #fcfcfc #000000 #000000 0 1;
#N canvas 0 22 418 314 oscreceive 0;
#X obj 110 131 oscparse;
#X obj 110 160 list trim;
#X obj 130 233 spigot;
#X obj 110 285 outlet;
#X obj 163 199 inlet;
#X obj 130 259 print OSC;
#X msg 175 70 listen 8880;
#X msg 110 69 listen 0;
#X obj 110 43 sel 0;
#X obj 110 104 netreceive -u -b;
#X obj 110 14 inlet;
#X connect 0 0 1 0;
#X connect 1 0 2 0;
#X connect 1 0 3 0;
#X connect 2 0 5 0;
#X connect 4 0 2 1;
#X connect 6 0 9 0;
#X connect 7 0 9 0;
#X connect 8 0 7 0;
#X connect 8 1 6 0;
#X connect 9 0 0 0;
#X connect 10 0 8 0;
#X coords 0 314 1 313 140 40 0;
#X restore 33 82 pd oscreceive 8880;
#X obj 33 52 tgl 15 0 empty empty listen 17 7 0 10 #fcfcfc #000000 #000000 0 1;
#X text 172 273 creation args: OSC dev name (required) \, axis range;
#X text 230 405 trackball: relative x & y motion;
#X floatatom 530 133 0 0 0 0 - - - 0;
#X obj 530 104 unpack f f;
#X floatatom 587 132 0 0 0 0 - - - 0;
#X floatatom 528 240 0 0 0 0 - - - 0;
#X obj 528 213 unpack f f;
#X floatatom 585 241 0 0 0 0 - - - 0;
#X text 475 40 sends named after OSC dev name;
#X obj 530 74 r js0-axis;
#X obj 528 184 r js0-button;
#X floatatom 530 351 0 0 0 0 - - - 0;
#X obj 530 324 unpack f f;
#X floatatom 587 352 0 0 0 0 - - - 0;
#X obj 530 295 r js0-hat;
#X floatatom 528 457 0 0 0 0 - - - 0;
#X floatatom 562 490 0 0 0 0 - - - 0;
#X obj 528 401 r js0-ball;
#X obj 528 430 unpack f f f;
#X floatatom 597 459 0 0 0 0 - - - 0;
#X obj 33 267 g_joystick js0;
#X msg 156 114 set js2;
#X text 253 473 Dan Wilcox 2009 \, 2015 \, 2024;
#X text 182 432 see [j_hatdir] for directions;
#X text 29 15 joyosc j_joystick gui wrapper;
#X msg 182 193 norm;
#X msg 187 220 snorm;
#X text 230 220 -1 - 1 signed normalize;
#X text 220 194 0 - 1 normalize;
#X text 226 166 -32768 - 32767;
#X msg 171 166 default;
#X text 168 138 axis range (if not using joyosc -n/--normalize);
#X connect 5 0 33 0;
#X connect 6 0 5 0;
#X connect 8 0 33 1;
#X connect 10 0 11 1;
#X connect 11 0 6 0;
#X connect 12 0 11 0;
#X connect 16 0 15 0;
#X connect 16 1 17 0;
#X connect 19 0 18 0;
#X connect 19 1 20 0;
#X connect 22 0 16 0;
#X connect 23 0 19 0;
#X connect 25 0 24 0;
#X connect 25 1 26 0;
#X connect 27 0 25 0;
#X connect 30 0 31 0;
#X connect 31 0 28 0;
#X connect 31 1 29 0;
#X connect 31 2 32 0;
#X connect 33 0 1 0;
#X connect 33 1 0 0;
#X connect 33 2 3 0;
#X connect 33 3 4 0;
#X connect 34 0 33 1;
#X connect 38 0 33 1;
#X connect 39 0 33 1;
#X connect 43 0 33 1;
