#N canvas 330 78 329 459 10;
#X obj 80 359 outlet;
#X obj 55 414 outlet;
#X obj 105 304 outlet;
#X obj 130 249 outlet;
#X obj 55 154 inlet OSC in;
#X obj 55 191 j_joystick \$1;
#X obj 160 154 inlet joy name;
#X text 155 25 j_joystick gui wrapper;
#X obj 1 17 cnv 15 128 103 empty empty empty 20 12 0 14 -233017 -66577
0;
#X obj 28 23 nbx 2 14 -1e+37 1e+37 0 0 empty \$0-button btn -20 6 0
10 -261234 -1 -1 4 256;
#X obj 63 23 nbx 6 14 -1e+37 1e+37 0 0 empty \$0-button-value empty
0 -6 0 10 -228856 -1 -1 0 256;
#X obj 63 43 nbx 6 14 -1e+37 1e+37 0 0 empty \$0-axis-value empty 0
-6 0 10 -228856 -1 -1 385 256;
#N canvas 702 431 201 175 button 0;
#X obj 13 16 inlet;
#X obj 13 151 outlet;
#X obj 29 65 unpack f f;
#X obj 29 119 s \$0-button;
#X obj 86 95 s \$0-button-value;
#X connect 0 0 2 0;
#X connect 0 0 1 0;
#X connect 2 0 3 0;
#X connect 2 1 4 0;
#X restore 55 386 pd button;
#N canvas 537 450 210 193 axis 0;
#X obj 16 6 inlet;
#X obj 50 71 unpack f f;
#X obj 50 129 s \$0-axis;
#X obj 107 102 s \$0-axis-value;
#X obj 16 155 outlet;
#X connect 0 0 1 0;
#X connect 0 0 4 0;
#X connect 1 0 2 0;
#X connect 1 1 3 0;
#X restore 80 332 pd axis;
#N canvas 537 450 210 193 hat 0;
#X obj 16 6 inlet;
#X obj 50 71 unpack f f;
#X obj 16 155 outlet;
#X obj 107 102 s \$0-hat-value;
#X obj 50 129 s \$0-hat;
#X connect 0 0 1 0;
#X connect 0 0 2 0;
#X connect 1 0 4 0;
#X connect 1 1 3 0;
#X restore 105 276 pd hat;
#N canvas 537 450 210 193 ball 0;
#X obj 16 6 inlet;
#X obj 50 71 unpack f f;
#X obj 16 155 outlet;
#X obj 107 102 s \$0-ball-value;
#X obj 50 129 s \$0-ball;
#X connect 0 0 1 0;
#X connect 0 0 2 0;
#X connect 1 0 4 0;
#X connect 1 1 3 0;
#X restore 130 223 pd ball;
#X obj 63 62 nbx 6 14 -1e+37 1e+37 0 0 empty \$0-hat-value empty 0
-6 0 10 -228856 -1 -1 0 256;
#X obj 28 82 nbx 2 14 -1e+37 1e+37 0 0 empty \$0-ball ball -25 6 0
10 -203904 -1 -1 0 256;
#X obj 63 82 nbx 6 14 -1e+37 1e+37 0 0 empty \$0-ball-value empty 0
-6 0 10 -228856 -1 -1 0 256;
#X obj 28 62 nbx 2 14 -1e+37 1e+37 0 0 empty \$0-hat hat -20 6 0 10
-257985 -1 -1 0 256;
#X obj 28 42 nbx 2 14 -1e+37 1e+37 0 0 empty \$0-axis axis -25 6 0
10 -204786 -1 -1 1 256;
#X obj 63 102 nbx 6 14 -1e+37 1e+37 0 0 empty \$0-ball-value empty
0 -6 0 10 -228856 -1 -1 0 256;
#X connect 4 0 5 0;
#X connect 5 0 12 0;
#X connect 5 1 13 0;
#X connect 5 2 14 0;
#X connect 5 3 15 0;
#X connect 6 0 5 1;
#X connect 12 0 1 0;
#X connect 13 0 0 0;
#X connect 14 0 2 0;
#X connect 15 0 3 0;
#X coords 0 -1 1 1 130 122 1 0 0;
