#N canvas 208 233 475 214 12;
#X obj 39 20 inlet;
#X obj 39 165 outlet;
#X obj 39 71 expr floor((($f1 + 32768) / 65535) * 100000) / 100000;
#X obj 39 114 * 127;
#X text 103 166 avoids rounding errors at slight loss in precision;
#X text 94 20 16-bit -32768 - 32767 to MIDI 0 - 127;
#X connect 0 0 2 0;
#X connect 2 0 3 0;
#X connect 3 0 1 0;
