#N canvas 291 133 443 313 10;
#X text 195 124 creation arg : address for the device;
#X text 228 216 events are sent out in lists;
#X text 257 261 button # 0 is down aka '1';
#X text 230 238 ex: /button "0 1";
#X obj 75 216 outlet;
#N canvas 4 48 351 242 creation 0;
#X obj 98 30 loadbang;
#X obj 98 101 symbol \$1;
#X msg 137 164 set \$1;
#X obj 137 195 outlet;
#X obj 98 134 sel SYM;
#X obj 98 62 t b b;
#X msg 174 101 symbol;
#X connect 0 0 5 0;
#X connect 1 0 4 0;
#X connect 2 0 3 0;
#X connect 4 1 2 0;
#X connect 5 0 1 0;
#X connect 5 1 6 0;
#X connect 6 0 4 1;
#X restore 70 79 pd creation arg;
#X obj 27 273 outlet;
#X text 24 16 parses incoming OSC data from joyosc;
#X obj 91 194 s \$1/axis;
#X obj 40 248 s \$1/button;
#X msg 215 80 set \$1;
#X obj 27 53 inlet OSC in;
#X obj 215 53 inlet joy name;
#X text 260 144 ex: /gc1;
#X obj 27 152 routeOSC /button /axis;
#X obj 27 109 routeOSC /CONTROLLER;
#X connect 5 0 15 0;
#X connect 10 0 15 0;
#X connect 11 0 15 0;
#X connect 12 0 10 0;
#X connect 14 0 6 0;
#X connect 14 0 9 0;
#X connect 14 1 4 0;
#X connect 14 1 8 0;
#X connect 15 0 14 0;
#X coords 0 313 1 312 130 62 0;
