#N canvas 291 121 659 472 10;
#X obj 68 397 print axis;
#X obj 22 426 print button;
#X floatatom 552 151 0 0 0 0 - - - 0;
#X floatatom 552 268 0 0 0 0 - - - 0;
#X text 417 434 robotcowboy.com | danomatika.com;
#X text 175 156 change dev name;
#X text 448 55 sends named after OSC dev name;
#X obj 22 130 route devices;
#X obj 22 100 route joyosc;
#X obj 495 93 r gc0-button;
#X obj 495 211 r gc0-axis;
#X symbolatom 495 173 0 0 0 0 - - - 0;
#X obj 495 123 unpack s f;
#X symbolatom 495 293 0 0 0 0 - - - 0;
#X obj 495 240 unpack s f;
#X msg 115 155 set gc2;
#X msg 141 237 norm;
#X msg 157 291 midi;
#X text 194 292 0 - 127;
#X text 139 328 creation args: OSC dev name (required) \, axis range;
#X obj 22 328 j_controller gc0;
#X text 19 12 joyosc game controller event object;
#X obj 127 39 tgl 15 0 empty empty print_all_messages 17 7 0 10 #fcfcfc #000000 #000000 0 1;
#N canvas 0 22 418 314 oscreceive 0;
#X obj 110 131 oscparse;
#X obj 110 160 list trim;
#X obj 130 233 spigot;
#X obj 110 285 outlet;
#X obj 163 199 inlet;
#X obj 130 259 print OSC;
#X msg 175 70 listen 8880;
#X msg 110 69 listen 0;
#X obj 110 43 sel 0;
#X obj 110 104 netreceive -u -b;
#X obj 110 14 inlet;
#X connect 0 0 1 0;
#X connect 1 0 2 0;
#X connect 1 0 3 0;
#X connect 2 0 5 0;
#X connect 4 0 2 1;
#X connect 6 0 9 0;
#X connect 7 0 9 0;
#X connect 8 0 7 0;
#X connect 8 1 6 0;
#X connect 9 0 0 0;
#X connect 10 0 8 0;
#X coords 0 314 1 313 140 40 0;
#X restore 22 68 pd oscreceive 8880;
#X obj 22 38 tgl 15 0 empty empty listen 17 7 0 10 #fcfcfc #000000 #000000 0 1;
#X text 193 265 -1 - 1 signed normalize;
#X msg 151 264 snorm;
#X text 179 238 0 - 1 normalize;
#X obj 115 371 print extra;
#X text 417 417 Dan Wilcox 2009 \, 2015 \, 2024;
#X obj 495 329 r gc0-extra;
#X listbox 495 381 20 0 0 0 - - - 0;
#X obj 495 354 list;
#X text 193 371 touchpad \, sensor;
#X text 185 211 -32767 - 32767;
#X msg 130 211 default;
#X text 127 183 axis range (if not using joyosc -n/--normalize);
#X connect 7 0 20 0;
#X connect 8 0 7 0;
#X connect 9 0 12 0;
#X connect 10 0 14 0;
#X connect 12 0 11 0;
#X connect 12 1 2 0;
#X connect 14 0 13 0;
#X connect 14 1 3 0;
#X connect 15 0 20 1;
#X connect 16 0 20 1;
#X connect 17 0 20 1;
#X connect 20 0 1 0;
#X connect 20 1 0 0;
#X connect 20 2 28 0;
#X connect 22 0 23 1;
#X connect 23 0 8 0;
#X connect 24 0 23 0;
#X connect 26 0 20 1;
#X connect 30 0 32 0;
#X connect 32 0 31 0;
#X connect 35 0 20 1;
