#N canvas 732 261 473 396 10;
#X text 170 287 events are sent out in lists;
#X text 199 332 button # 0 is down aka '1';
#X obj 69 304 outlet;
#X obj 20 361 outlet;
#X text 17 18 parses incoming OSC data from joyosc;
#X obj 20 55 inlet OSC in;
#X obj 20 173 route button axis;
#X obj 33 336 s \$1-button;
#X obj 85 282 s \$1-axis;
#X obj 20 142 route \$1;
#X obj 167 55 inlet;
#N canvas 626 173 322 378 axis 0;
#X obj 24 33 inlet;
#X obj 132 40 r \$0-range;
#X obj 24 344 outlet;
#N canvas 477 233 525 407 demux4 0;
#X obj 88 263 outlet;
#X obj 88 226 spigot 1;
#X obj 161 264 outlet;
#X obj 161 227 spigot 0;
#X obj 231 264 outlet;
#X obj 231 227 spigot 0;
#X obj 88 51 inlet;
#X obj 265 57 inlet;
#X obj 265 83 select 0 1 2 3;
#X msg 265 109 1 0 0 0;
#X msg 321 109 0 1 0 0;
#X msg 378 109 0 0 1 0;
#X msg 435 109 0 0 0 1;
#X obj 265 152 unpack 0 0 0 0;
#X obj 301 264 outlet;
#X obj 301 227 spigot 0;
#X connect 1 0 0 0;
#X connect 3 0 2 0;
#X connect 5 0 4 0;
#X connect 6 0 1 0;
#X connect 6 0 3 0;
#X connect 6 0 5 0;
#X connect 6 0 15 0;
#X connect 7 0 8 0;
#X connect 8 0 9 0;
#X connect 8 1 10 0;
#X connect 8 2 11 0;
#X connect 8 3 12 0;
#X connect 9 0 13 0;
#X connect 10 0 13 0;
#X connect 11 0 13 0;
#X connect 12 0 13 0;
#X connect 13 0 1 1;
#X connect 13 1 3 1;
#X connect 13 2 5 1;
#X connect 13 3 15 1;
#X connect 15 0 14 0;
#X restore 81 155 pd demux4;
#X msg 132 122 0;
#X msg 171 122 1;
#X msg 207 122 2;
#X obj 132 65 symbol;
#X msg 242 122 3;
#X obj 132 91 sel hid norm snorm midi;
#X obj 24 64 unpack s f;
#X obj 24 286 pack s f;
#X obj 24 313 list trim;
#X obj 98 187 j_hton;
#X obj 116 218 j_htosn;
#X obj 132 249 j_htom;
#X connect 0 0 10 0;
#X connect 1 0 7 0;
#X connect 3 0 11 1;
#X connect 3 1 13 0;
#X connect 3 2 14 0;
#X connect 3 3 15 0;
#X connect 4 0 3 1;
#X connect 5 0 3 1;
#X connect 6 0 3 1;
#X connect 7 0 9 0;
#X connect 8 0 3 1;
#X connect 9 0 4 0;
#X connect 9 1 5 0;
#X connect 9 2 6 0;
#X connect 9 3 8 0;
#X connect 10 0 11 0;
#X connect 10 1 3 0;
#X connect 11 0 12 0;
#X connect 12 0 2 0;
#X connect 13 0 11 1;
#X connect 14 0 11 1;
#X connect 15 0 11 1;
#X restore 69 249 pd axis range;
#N canvas 4 48 306 237 arg2 0;
#X obj 88 32 loadbang;
#X obj 127 173 outlet;
#X obj 88 136 sel SYM;
#X obj 88 64 t b b;
#X msg 164 103 symbol;
#X obj 88 103 symbol \$2;
#X connect 0 0 3 0;
#X connect 2 1 1 0;
#X connect 3 0 5 0;
#X connect 3 1 4 0;
#X connect 4 0 2 1;
#X connect 5 0 2 0;
#X restore 236 85 pd arg2;
#X obj 167 85 route set;
#X obj 218 115 s \$0-range;
#X text 254 168 2: axis range mapping:;
#X text 170 150 creation args 1: device address name \, ex: gc0;
#X text 172 308 ex: gc0-button "0 1";
#X obj 167 114 symbol;
#X text 272 191 hid: -32768 - 32767 (default);
#X text 273 255 midi: 0 - 127 MIDI;
#X obj 119 224 outlet;
#X text 272 212 norm: 0 - 1 normalize;
#X obj 135 201 s \$1-extra;
#X text 272 233 snorm: -1 - 1 signed normalize;
#X connect 5 0 9 0;
#X connect 6 0 3 0;
#X connect 6 0 7 0;
#X connect 6 1 11 0;
#X connect 6 2 21 0;
#X connect 6 2 23 0;
#X connect 9 0 6 0;
#X connect 10 0 13 0;
#X connect 11 0 2 0;
#X connect 11 0 8 0;
#X connect 12 0 14 0;
#X connect 13 0 18 0;
#X connect 13 1 14 0;
#X connect 18 0 9 1;
#X coords 0 396 1 395 130 62 0;
