#N canvas 532 116 551 372 12;
#X obj 31 27 inlet;
#X obj 31 71 select 0 1 2 4 8;
#X msg 31 105 symbol center;
#X msg 52 137 symbol up;
#X msg 74 169 symbol right;
#X msg 96 202 symbol down;
#X msg 118 234 symbol left;
#X msg 312 169 symbol rightup;
#X msg 332 201 symbol rightdown;
#X msg 352 234 symbol leftup;
#X msg 372 266 symbol leftdown;
#X obj 312 137 sel 3 6 9 12;
#X obj 96 332 outlet;
#X text 158 70 cardinal directions;
#X text 311 108 combined for corner directions;
#X text 122 22 base SDL hat bitmasks:, f 23;
#X text 123 40 0 center \, 1 up \, 2 right \, 4 down \, 8 left;
#X connect 0 0 1 0;
#X connect 1 0 2 0;
#X connect 1 1 3 0;
#X connect 1 2 4 0;
#X connect 1 3 5 0;
#X connect 1 4 6 0;
#X connect 1 5 11 0;
#X connect 2 0 12 0;
#X connect 3 0 12 0;
#X connect 4 0 12 0;
#X connect 5 0 12 0;
#X connect 6 0 12 0;
#X connect 7 0 12 0;
#X connect 8 0 12 0;
#X connect 9 0 12 0;
#X connect 10 0 12 0;
#X connect 11 0 7 0;
#X connect 11 1 8 0;
#X connect 11 2 9 0;
#X connect 11 3 10 0;
