#N canvas 216 203 332 297 12;
#X obj 63 152 j_hatdir;
#X msg 63 68 0;
#X msg 63 44 1;
#X msg 63 92 4;
#X msg 27 68 8;
#X msg 100 68 2;
#X listbox 63 200 20 0 0 0 - - - 0;
#X msg 100 44 3;
#X msg 27 44 9;
#X msg 100 92 6;
#X msg 27 92 12;
#X text 22 13 convert SDL hat bitmask values to names;
#X text 25 254 robotcowboy.com | danomatika.com;
#X text 25 237 Dan Wilcox 2024;
#X connect 0 0 6 0;
#X connect 1 0 0 0;
#X connect 2 0 0 0;
#X connect 3 0 0 0;
#X connect 4 0 0 0;
#X connect 5 0 0 0;
#X connect 7 0 0 0;
#X connect 8 0 0 0;
#X connect 9 0 0 0;
#X connect 10 0 0 0;
