#N canvas 237 262 376 333 12;
#X obj 38 154 j_htom;
#X floatatom 38 111 10 0 0 0 - - - 0;
#X floatatom 38 198 10 0 0 0 - - - 0;
#X obj 41 241 hsl 162 19 0 127 0 0 empty empty MIDI\ 0\ -\ 127 4 10 0 12 #fcfcfc #000000 #000000 0 1;
#X obj 41 67 hsl 162 19 -32768 32767 0 0 empty empty HID\ -32768\ -\ 32767 4 10 0 12 #fcfcfc #000000 #000000 0 1;
#X msg 38 33 0;
#X text 72 32 center;
#X text 95 155 convert HID axis value to MIDI range;
#X text 35 294 robotcowboy.com | danomatika.com;
#X text 35 277 Dan Wilcox 2024;
#X connect 0 0 2 0;
#X connect 1 0 0 0;
#X connect 2 0 3 0;
#X connect 4 0 1 0;
#X connect 5 0 4 0;
