#N canvas 551 81 729 489 10;
#X obj 59 419 print axis;
#X obj 32 445 print button;
#X floatatom 569 132 0 0 0 0 - - - 0;
#X obj 569 103 unpack f f;
#X floatatom 626 131 0 0 0 0 - - - 0;
#X floatatom 567 227 0 0 0 0 - - - 0;
#X obj 567 200 unpack f f;
#X floatatom 624 228 0 0 0 0 - - - 0;
#X text 212 450 robotcowboy.com | danomatika.com;
#X obj 86 390 print hat;
#X obj 113 363 print ball;
#X text 514 39 sends named after OSC dev name;
#X text 24 11 joyosc joystick event object;
#X obj 32 132 route devices;
#X obj 32 102 route joyosc;
#X obj 32 326 j_joystick js0;
#X obj 569 73 r js0-axis;
#X obj 567 171 r js0-button;
#X text 171 166 change dev name;
#X msg 128 220 hid;
#X msg 139 248 norm;
#X msg 154 299 midi;
#X text 125 192 axis range;
#X text 137 327 creation args: OSC dev name (required) \, axis range;
#X floatatom 569 326 0 0 0 0 - - - 0;
#X obj 569 299 unpack f f;
#X floatatom 626 327 0 0 0 0 - - - 0;
#X obj 569 270 r js0-hat;
#X floatatom 569 420 0 0 0 0 - - - 0;
#X floatatom 603 453 0 0 0 0 - - - 0;
#X obj 569 364 r js0-ball;
#X obj 569 393 unpack f f f;
#X floatatom 638 422 0 0 0 0 - - - 0;
#X text 187 365 trackball: relative x & y motion;
#X obj 137 41 tgl 15 0 empty empty print_all_messages 17 7 0 10 #fcfcfc #000000 #000000 0 1;
#N canvas 0 22 418 314 oscreceive 0;
#X obj 110 131 oscparse;
#X obj 110 160 list trim;
#X obj 130 233 spigot;
#X obj 110 285 outlet;
#X obj 163 199 inlet;
#X obj 130 259 print OSC;
#X msg 175 70 listen 8880;
#X msg 110 69 listen 0;
#X obj 110 43 sel 0;
#X obj 110 104 netreceive -u -b;
#X obj 110 14 inlet;
#X connect 0 0 1 0;
#X connect 1 0 2 0;
#X connect 1 0 3 0;
#X connect 2 0 5 0;
#X connect 4 0 2 1;
#X connect 6 0 9 0;
#X connect 7 0 9 0;
#X connect 8 0 7 0;
#X connect 8 1 6 0;
#X connect 9 0 0 0;
#X connect 10 0 8 0;
#X coords 0 314 1 313 140 40 0;
#X restore 32 70 pd oscreceive 8880;
#X obj 32 40 tgl 15 0 empty empty listen 17 7 0 10 #fcfcfc #000000 #000000 0 1;
#X text 156 220 -32768 - 32767 (default);
#X text 191 300 0 - 127 MIDI;
#X text 212 433 Dan Wilcox 2009 \, 2015 \, 2024;
#X msg 149 273 snorm;
#X msg 113 165 set js2;
#X text 177 249 0 - 1 normalize;
#X text 197 274 -1 - 1 signed normalize;
#X text 152 390 see [j_hatdir] for directions;
#X connect 3 0 2 0;
#X connect 3 1 4 0;
#X connect 6 0 5 0;
#X connect 6 1 7 0;
#X connect 13 0 15 0;
#X connect 14 0 13 0;
#X connect 15 0 1 0;
#X connect 15 1 0 0;
#X connect 15 2 9 0;
#X connect 15 3 10 0;
#X connect 16 0 3 0;
#X connect 17 0 6 0;
#X connect 19 0 15 1;
#X connect 20 0 15 1;
#X connect 21 0 15 1;
#X connect 25 0 24 0;
#X connect 25 1 26 0;
#X connect 27 0 25 0;
#X connect 30 0 31 0;
#X connect 31 0 28 0;
#X connect 31 1 29 0;
#X connect 31 2 32 0;
#X connect 34 0 35 1;
#X connect 35 0 14 0;
#X connect 36 0 35 0;
#X connect 40 0 15 1;
#X connect 41 0 15 1;
