#N canvas 130 176 528 469 10;
#X obj 55 370 outlet;
#X obj 17 427 outlet;
#X obj 93 287 outlet;
#X obj 131 230 outlet;
#X text 14 5 parses incoming OSC data from joyosc;
#X obj 17 42 inlet OSC in;
#X obj 17 98 route \$1;
#X obj 17 141 route button axis hat ball;
#X obj 205 42 inlet;
#N canvas 4 48 306 237 arg2 0;
#X obj 88 32 loadbang;
#X obj 127 173 outlet;
#X obj 88 136 sel SYM;
#X obj 88 64 t b b;
#X msg 164 103 symbol;
#X obj 88 103 symbol \$2;
#X connect 0 0 3 0;
#X connect 2 1 1 0;
#X connect 3 0 5 0;
#X connect 3 1 4 0;
#X connect 4 0 2 1;
#X connect 5 0 2 0;
#X restore 274 70 pd arg2;
#X obj 205 70 route set;
#X obj 256 100 s \$0-range;
#X text 221 278 events are sent out in lists;
#X text 250 323 button # 0 is down aka '1';
#X text 305 159 2: axis range mapping:;
#X text 221 141 creation args 1: device address name \, ex: js0;
#X text 223 299 ex: js0-button "0 1";
#N canvas 346 177 321 363 axis 0;
#X obj 24 33 inlet;
#X obj 132 40 r \$0-range;
#X obj 24 318 outlet;
#N canvas 477 233 525 407 demux4 0;
#X obj 88 263 outlet;
#X obj 88 226 spigot 1;
#X obj 161 264 outlet;
#X obj 161 227 spigot 0;
#X obj 231 264 outlet;
#X obj 231 227 spigot 0;
#X obj 88 51 inlet;
#X obj 265 57 inlet;
#X obj 265 83 select 0 1 2 3;
#X msg 265 109 1 0 0 0;
#X msg 321 109 0 1 0 0;
#X msg 378 109 0 0 1 0;
#X msg 435 109 0 0 0 1;
#X obj 265 152 unpack 0 0 0 0;
#X obj 301 264 outlet;
#X obj 301 227 spigot 0;
#X connect 1 0 0 0;
#X connect 3 0 2 0;
#X connect 5 0 4 0;
#X connect 6 0 1 0;
#X connect 6 0 3 0;
#X connect 6 0 5 0;
#X connect 6 0 15 0;
#X connect 7 0 8 0;
#X connect 8 0 9 0;
#X connect 8 1 10 0;
#X connect 8 2 11 0;
#X connect 8 3 12 0;
#X connect 9 0 13 0;
#X connect 10 0 13 0;
#X connect 11 0 13 0;
#X connect 12 0 13 0;
#X connect 13 0 1 1;
#X connect 13 1 3 1;
#X connect 13 2 5 1;
#X connect 13 3 15 1;
#X connect 15 0 14 0;
#X restore 81 155 pd demux4;
#X msg 132 122 0;
#X msg 171 122 1;
#X msg 207 122 2;
#X obj 132 65 symbol;
#X obj 24 286 pack f f;
#X obj 24 64 unpack f f;
#X msg 242 122 3;
#X obj 132 91 sel default norm snorm midi;
#X obj 98 187 j_aton;
#X obj 115 218 j_atosn;
#X obj 132 248 j_atom;
#X connect 0 0 9 0;
#X connect 1 0 7 0;
#X connect 3 0 8 1;
#X connect 3 1 12 0;
#X connect 3 2 13 0;
#X connect 3 3 14 0;
#X connect 4 0 3 1;
#X connect 5 0 3 1;
#X connect 6 0 3 1;
#X connect 7 0 11 0;
#X connect 8 0 2 0;
#X connect 9 0 8 0;
#X connect 9 1 3 0;
#X connect 10 0 3 1;
#X connect 11 0 4 0;
#X connect 11 1 5 0;
#X connect 11 2 6 0;
#X connect 11 3 10 0;
#X connect 12 0 8 1;
#X connect 13 0 8 1;
#X connect 14 0 8 1;
#X restore 55 319 pd axis range;
#X obj 30 402 s \$1-button;
#X obj 71 348 s \$1-axis;
#X obj 108 264 s \$1-hat;
#X obj 151 205 s \$1-ball;
#X text 324 246 midi: 0 - 127 MIDI;
#X text 323 204 norm: 0 - 1 normalize;
#X text 323 224 snorm: -1 - 1 signed normalize;
#X text 323 182 default: -32768 - 32767;
#X connect 5 0 6 0;
#X connect 6 0 7 0;
#X connect 7 0 1 0;
#X connect 7 0 18 0;
#X connect 7 1 17 0;
#X connect 7 2 2 0;
#X connect 7 2 20 0;
#X connect 7 3 3 0;
#X connect 7 3 21 0;
#X connect 8 0 10 0;
#X connect 9 0 11 0;
#X connect 10 0 6 1;
#X connect 10 1 11 0;
#X connect 17 0 0 0;
#X connect 17 0 19 0;
#X coords 0 469 1 468 130 62 0;
