#N canvas 407 212 554 405 10;
#X obj 15 107 sendOSC;
#X msg 37 42 disconnect;
#X floatatom 344 197 5 0 0 0 - - -;
#X floatatom 389 198 5 0 0 0 - - -;
#X obj 344 218 pack f f;
#X msg 15 12 connect localhost 7770;
#X obj 47 72 r \$0-out;
#X obj 99 279 s \$0-out;
#X obj 344 266 s \$0-out;
#X obj 130 355 s \$0-out;
#X obj 348 355 s \$0-out;
#X obj 99 222 pack f f f;
#X floatatom 99 159 5 0 0 0 - - -;
#X floatatom 127 180 5 0 0 0 - - -;
#X floatatom 156 201 5 0 0 0 - - -;
#X obj 242 150 s \$0-out;
#X msg 216 216 6 6 6;
#X msg 319 171 13 3;
#X msg 242 92 3 4 3 12;
#X msg 168 157 6;
#X msg 198 172 6;
#X msg 231 184 6;
#X obj 65 156 bng 15 250 50 0 empty empty empty 0 -6 0 10 -262144 -1
-1;
#X obj 70 194 t b f;
#X obj 193 25 metro 500;
#X obj 191 5 tgl 15 0 empty empty empty 0 -6 0 10 -262144 -1 -1 0 1
;
#X floatatom 243 5 5 0 0 0 - - -;
#X msg 354 159 9;
#X obj 181 56 count.up&down 0 7 1;
#X msg 130 328 send /unitd/mask update 0 0 0 0;
#X msg 348 327 send /unitd/mask clear 0 0 0 0;
#X msg 344 240 send /unitd/mask pixel \$1 \$2 0 0;
#X msg 242 121 send /unitd/mask line \$1 \$2 \$3 \$4;
#X msg 19 133 send /unitd/mask null 0 0 0 0;
#X msg 99 249 send /unitd/mask rect \$1 \$2 \$3 0;
#X connect 1 0 0 0;
#X connect 2 0 4 0;
#X connect 3 0 4 1;
#X connect 4 0 31 0;
#X connect 5 0 0 0;
#X connect 6 0 0 0;
#X connect 11 0 34 0;
#X connect 12 0 11 0;
#X connect 13 0 11 1;
#X connect 14 0 23 0;
#X connect 16 0 34 0;
#X connect 17 0 31 0;
#X connect 18 0 32 0;
#X connect 19 0 12 0;
#X connect 20 0 13 0;
#X connect 21 0 14 0;
#X connect 22 0 12 0;
#X connect 23 0 11 0;
#X connect 23 1 11 2;
#X connect 24 0 28 0;
#X connect 25 0 24 0;
#X connect 26 0 24 1;
#X connect 27 0 3 0;
#X connect 28 0 14 0;
#X connect 28 0 2 0;
#X connect 29 0 9 0;
#X connect 30 0 10 0;
#X connect 31 0 8 0;
#X connect 32 0 15 0;
#X connect 33 0 7 0;
#X connect 34 0 7 0;
