#N canvas 388 446 467 322 10;
#X obj 26 231 outlet;
#X obj 17 98 inlet;
#X obj 103 235 outlet;
#X text 139 30 parses incoming OSC data for OSC from unit_joysticks
;
#X text 113 98 incoming OSC messages;
#X text 111 144 creation arg : address for the device;
#X text 186 196 strip out axis and button events;
#X text 28 252 axis;
#X text 193 236 events are sent out in lists;
#X text 222 281 button # 0 is down aka '1';
#X text 195 258 ex: /button "0 1";
#X obj 29 56 nbx 2 14 -1e+37 1e+37 0 0 empty \$0-button btn -20 6 0
10 -261234 -1 -1 0 256;
#X obj 64 56 nbx 5 14 -1e+37 1e+37 0 0 empty \$0-button-value empty
0 -6 0 10 -228856 -1 -1 0 256;
#X obj 29 32 nbx 2 14 -1e+37 1e+37 0 0 empty \$0-axis axis -25 6 0
10 -204786 -1 -1 0 256;
#X obj 64 33 nbx 6 14 -1e+37 1e+37 0 0 empty \$0-axis-value values
0 -6 0 10 -228856 -1 -1 0 256;
#X text 173 56 has built in gui for simple debugging;
#X obj 59 99 r \$1/in;
#N canvas 0 0 407 207 buttons 0;
#X obj 41 82 unpack f f;
#X obj 41 163 s \$0-button;
#X obj 98 123 s \$0-button-value;
#X obj 41 33 inlet;
#X obj 123 63 s \$1/button;
#X text 113 32 button sends to gui and named sends;
#X connect 0 0 1 0;
#X connect 0 1 2 0;
#X connect 3 0 0 0;
#X connect 3 0 4 0;
#X restore 81 281 pd buttons;
#X text 102 259 buttons;
#N canvas 0 0 374 211 axis 0;
#X obj 38 70 unpack f f;
#X obj 38 168 s \$0-axis;
#X obj 95 116 s \$0-axis-value;
#X obj 38 21 inlet;
#X text 102 28 axis sends to gui and named sends;
#X obj 134 58 s \$1/axis;
#X connect 0 0 1 0;
#X connect 0 1 2 0;
#X connect 3 0 0 0;
#X connect 3 0 5 0;
#X restore 17 280 pd axis;
#X obj 17 194 routeOSC /axis /button;
#X obj 17 143 routeOSC /\$1;
#X text 215 164 ex: joy1;
#X connect 1 0 21 0;
#X connect 16 0 21 0;
#X connect 20 0 0 0;
#X connect 20 0 19 0;
#X connect 20 1 2 0;
#X connect 20 1 17 0;
#X connect 21 0 20 0;
#X coords 0 -1 1 1 130 75 1 0 0;
