#N canvas 139 343 465 348 10;
#X obj 18 112 inlet;
#X text 165 45 has built in gui for simple debugging;
#X symbolatom 29 54 5 0 0 0 btn #0-button -;
#X obj 72 54 nbx 2 14 -1e+37 1e+37 0 0 empty \$0-button-value empty
0 -6 0 10 -228856 -1 -1 0 256;
#X obj 29 32 nbx 2 14 -1e+37 1e+37 0 0 empty \$0-axis axis -25 6 0
10 -204786 -1 -1 0 256;
#X obj 72 34 nbx 3 14 0 100 0 0 empty \$0-axis-value values 0 -6 0
10 -228856 -1 -1 0 256;
#X text 62 112 incoming OSC ext msgs from unit-wiimote;
#X obj 27 203 outlet;
#X obj 104 207 outlet;
#X text 187 168 strip out axis and button events;
#X text 29 224 axis;
#X text 194 208 events are sent out in lists;
#X text 223 253 button # 0 is down aka '1';
#X text 196 230 ex: /button "0 1";
#N canvas 0 0 384 198 buttons 0;
#X obj 98 123 s \$0-button-value;
#X obj 41 33 inlet;
#X text 102 33 button sends to gui and named sends;
#X obj 41 123 symbol;
#X obj 41 82 unpack s f;
#X obj 41 163 s \$0-button;
#X connect 1 0 4 0;
#X connect 3 0 5 0;
#X connect 4 0 3 0;
#X connect 4 1 0 0;
#X restore 82 253 pd buttons;
#X text 103 231 buttons;
#N canvas 0 0 374 211 axis 0;
#X obj 38 168 s \$0-axis;
#X obj 95 116 s \$0-axis-value;
#X obj 38 21 inlet;
#X text 102 28 axis sends to gui and named sends;
#X obj 38 70 unpack f f;
#X connect 2 0 4 0;
#X connect 4 0 0 0;
#X connect 4 1 1 0;
#X restore 18 252 pd axis;
#X obj 18 166 routeOSC /axis /button;
#X text 156 18 parses classic controller data from unit-wiimote;
#X obj 18 139 routeOSC /classic;
#X connect 0 0 19 0;
#X connect 17 0 7 0;
#X connect 17 0 16 0;
#X connect 17 1 8 0;
#X connect 17 1 14 0;
#X connect 19 0 17 0;
#X coords 0 -1 1 1 130 75 1 0 0;
