#N canvas 168 246 626 462 10;
#X obj 21 92 routeOSC /pd;
#X obj 21 121 routeOSC /unitd /devices;
#X obj 21 55 unpackOSC;
#X obj 453 381 udpsend;
#X msg 482 315 connect 127.0.0.1 7770;
#X obj 451 195 packOSC;
#X obj 453 417 tgl 15 0 empty empty empty 0 -6 0 10 -262144 -1 -1 1
1;
#X obj 451 222 prepend send;
#X msg 478 353 disconnect;
#X msg 410 164 send /unitd/wiimote \$1;
#X obj 258 396 tgl 15 0 empty empty empty 0 -6 0 10 -262144 -1 -1 0
1;
#X msg 404 135 1;
#X msg 439 135 0;
#X obj 125 41 unpack 0 0 0 0;
#X floatatom 125 64 3 0 0 0 - - -;
#X floatatom 160 64 3 0 0 0 - - -;
#X floatatom 196 64 3 0 0 0 - - -;
#X floatatom 232 64 3 0 0 0 - - -;
#X text 92 63 from;
#X obj 21 361 routeOSC /insert /removal /ready /shutdown /wii;
#X obj 25 397 bng 15 250 50 0 empty empty empty 0 -6 0 10 -262144 -1
-1;
#X obj 79 402 bng 15 250 50 0 empty empty empty 0 -6 0 10 -262144 -1
-1;
#X obj 138 402 bng 15 250 50 0 empty empty empty 0 -6 0 10 -262144
-1 -1;
#X obj 191 400 bng 15 250 50 0 empty empty empty 0 -6 0 10 -262144
-1 -1;
#X obj 475 283 sel 0;
#X obj 404 1 r /bbox/button;
#X obj 475 258 tgl 15 0 empty empty empty 0 -6 0 10 -262144 -1 -1 1
1;
#X obj 405 55 &;
#X obj 447 56 &;
#X obj 404 25 route 0 2 3;
#X obj 400 80 sel 1;
#X obj 448 79 sel 1;
#X obj 401 106 bng 15 250 50 0 empty empty empty 0 -6 0 10 -262144
-1 -1;
#X obj 444 106 bng 15 250 50 0 empty empty empty 0 -6 0 10 -262144
-1 -1;
#X obj 552 195 loadbang;
#X msg 552 224 1;
#X obj 21 17 udpreceive 8880;
#X obj 210 176 unit-joystick /bbox;
#X obj 49 176 unit-wiimote /wii;
#X connect 0 0 1 0;
#X connect 1 0 19 0;
#X connect 1 1 37 0;
#X connect 1 1 38 0;
#X connect 2 0 0 0;
#X connect 3 0 6 0;
#X connect 4 0 3 0;
#X connect 5 0 7 0;
#X connect 7 0 3 0;
#X connect 8 0 3 0;
#X connect 9 0 5 0;
#X connect 11 0 9 0;
#X connect 12 0 9 0;
#X connect 13 0 14 0;
#X connect 13 1 15 0;
#X connect 13 2 16 0;
#X connect 13 3 17 0;
#X connect 19 0 20 0;
#X connect 19 1 21 0;
#X connect 19 2 22 0;
#X connect 19 3 23 0;
#X connect 19 4 10 0;
#X connect 24 0 8 0;
#X connect 24 1 4 0;
#X connect 25 0 29 0;
#X connect 26 0 24 0;
#X connect 27 0 30 0;
#X connect 28 0 31 0;
#X connect 29 0 27 0;
#X connect 29 1 27 1;
#X connect 29 1 28 0;
#X connect 29 2 28 1;
#X connect 30 0 32 0;
#X connect 31 0 33 0;
#X connect 32 0 11 0;
#X connect 33 0 12 0;
#X connect 34 0 35 0;
#X connect 35 0 26 0;
#X connect 36 0 2 0;
#X connect 36 1 13 0;
