#N canvas 151 406 415 267 10;
#X obj 21 74 inlet;
#X text 65 74 incoming OSC ext msgs from unit-wiimote;
#X obj 30 165 outlet;
#X obj 107 169 outlet;
#X text 190 130 strip out axis and button events;
#X text 32 186 axis;
#X text 197 170 events are sent out in lists;
#X text 226 215 button # 0 is down aka '1';
#X text 199 192 ex: /button "0 1";
#X text 106 193 buttons;
#X obj 21 128 routeOSC /axis /button;
#X text 26 21 parses classic controller data from unit-wiimote;
#X obj 21 101 routeOSC /classic;
#X obj 85 215 s \$0-button;
#X obj 21 215 s \$0-axis;
#X connect 0 0 12 0;
#X connect 10 0 2 0;
#X connect 10 0 14 0;
#X connect 10 1 3 0;
#X connect 10 1 13 0;
#X connect 12 0 10 0;
#X coords 0 0 1 1 130 75 0;
