#N canvas 108 128 937 520 10;
#X declare -path ./joyosc;
#X obj 634 270 bng 15 250 50 0 empty empty empty 0 20 0 10 #fcfcfc #000000 #000000;
#X obj 679 270 bng 15 250 50 0 empty empty empty 0 20 0 10 #fcfcfc #000000 #000000;
#X obj 725 297 bng 15 250 50 0 empty empty open -3 20 0 10 #fcfcfc #000000 #000000;
#X obj 771 297 bng 15 250 50 0 empty empty close 0 20 0 10 #fcfcfc #000000 #000000;
#X obj 29 455 unpack;
#X floatatom 29 482 0 0 0 0 num - - 0;
#X floatatom 92 482 0 0 0 0 val - - 0;
#X floatatom 56 421 0 0 0 0 num - - 0;
#X floatatom 120 421 0 0 0 0 val - - 0;
#X obj 56 394 unpack;
#X text 636 488 robotcowboy.com | danomatika.com;
#X floatatom 83 357 0 0 0 0 num - - 0;
#X floatatom 147 357 0 0 0 0 val - - 0;
#X obj 83 328 unpack;
#X floatatom 110 297 0 0 0 0 num - - 0;
#X floatatom 169 297 0 0 0 0 xrel - - 0;
#X text 131 327 hat (dpad);
#X floatatom 438 421 0 0 0 0 val - - 0;
#X floatatom 482 357 0 0 0 0 val - - 0;
#X text 443 327 axis;
#X text 394 393 button;
#X symbolatom 324 421 0 0 0 0 name - - 0;
#X symbolatom 370 357 0 0 0 0 name - - 0;
#X text 633 214 joyosc deamon events;
#X text 38 214 joystick events;
#X text 324 214 game controller events;
#X obj 370 328 unpack s f;
#X obj 324 394 unpack s f;
#X obj 29 87 route joyosc;
#X obj 134 23 tgl 15 0 empty empty print_all_messages 17 7 0 10 #fcfcfc #000000 #000000 0 1;
#N canvas 0 22 418 314 oscreceive 0;
#X obj 110 131 oscparse;
#X obj 110 160 list trim;
#X obj 130 233 spigot;
#X obj 110 285 outlet;
#X obj 163 199 inlet;
#X obj 130 259 print OSC;
#X msg 175 70 listen 8880;
#X msg 110 69 listen 0;
#X obj 110 43 sel 0;
#X obj 110 104 netreceive -u -b;
#X obj 110 14 inlet;
#X connect 0 0 1 0;
#X connect 1 0 2 0;
#X connect 1 0 3 0;
#X connect 2 0 5 0;
#X connect 4 0 2 1;
#X connect 6 0 9 0;
#X connect 7 0 9 0;
#X connect 8 0 7 0;
#X connect 8 1 6 0;
#X connect 9 0 0 0;
#X connect 10 0 8 0;
#X coords 0 314 1 313 140 40 0;
#X restore 29 52 pd oscreceive 8880;
#X obj 29 22 tgl 15 0 empty empty listen 17 7 0 10 #c6ffc7 #000000 #000000 0 1;
#X obj 320 23 declare -path ./joyosc;
#X obj 110 270 unpack f f f;
#X floatatom 230 297 0 0 0 0 yrel - - 0;
#X obj 324 237 j_controller gc0;
#X obj 29 237 j_joystick js0;
#X floatatom 780 357 0 0 0 0 id - - 0;
#X symbolatom 689 357 0 0 0 0 type - - 0;
#X obj 634 237 route ready shutdown open close;
#X obj 746 270 t a;
#X text 637 471 Dan Wilcox 2009 \, 2015 \, 2024;
#N canvas 152 59 497 252 send 0;
#X msg 95 154 disconnect;
#N canvas 0 25 356 247 oscsend 0;
#X obj 71 59 inlet;
#X obj 71 146 netsend -u -b;
#X obj 71 119 list trim;
#X obj 71 92 list prepend send;
#X obj 71 174 outlet;
#X obj 201 119 inlet;
#X connect 0 0 3 0;
#X connect 1 0 4 0;
#X connect 2 0 1 0;
#X connect 3 0 2 0;
#X connect 5 0 1 0;
#X restore 19 179 pd oscsend;
#X obj 19 205 tgl 15 0 empty empty connected 17 7 0 10 #ffffff #000000 #000000 0 1;
#X msg 76 47 connect 127.0.0.1 7770;
#X msg 91 120 connect \$1 7770;
#X obj 19 22 r \$0-OSC;
#X text 98 22 <-- start here;
#N canvas 208 233 371 325 device 0;
#X msg 37 53 bang;
#X obj 37 79 oscformat /joyosc/query/count;
#X msg 82 115 bang;
#X obj 82 204 oscformat /joyosc/query;
#X msg 119 143 0;
#X msg 149 171 symbol gc0;
#X text 33 22 query active devices;
#X text 75 53 device count;
#X text 120 113 all devices;
#X text 148 143 by device index;
#X text 225 170 by device address;
#X obj 82 232 send \$0-OSC;
#X text 39 280 note: enable listening to receive query replies;
#X connect 0 0 1 0;
#X connect 1 0 11 0;
#X connect 2 0 3 0;
#X connect 3 0 11 0;
#X connect 4 0 3 0;
#X connect 5 0 3 0;
#X restore 360 117 pd device query;
#X obj 259 174 oscformat /joyosc/quit;
#X msg 259 143 bang;
#X text 258 117 quit joyosc;
#X obj 259 205 send \$0-OSC;
#X obj 76 22 bng 16 250 50 0 empty empty empty 0 -8 0 10 #c6ffc7 #000000 #000000;
#X listbox 91 95 20 0 0 1 host - - 0;
#X text 90 72 or type hostname/ip below and hit enter;
#N canvas 179 204 422 283 joystick 0;
#X obj 42 59 tgl 16 0 empty empty empty 0 -8 0 10 #fcfcfc #000000 #000000 0 1;
#X obj 42 233 send \$0-OSC;
#X obj 84 123 tgl 16 0 empty empty empty 0 -8 0 10 #fcfcfc #000000 #000000 0 1;
#X text 41 24 joystick axes;
#X obj 84 151 oscformat /joyosc/devices/js0/axes/normalize;
#X obj 42 87 oscformat /joyosc/devices/js0/axes/triggers;
#X connect 0 0 5 0;
#X connect 2 0 4 0;
#X connect 4 0 1 0;
#X connect 5 0 1 0;
#X restore 360 57 pd joystick;
#N canvas 107 110 925 364 controller 0;
#X listbox 415 257 20 0 0 0 - - - 0;
#X obj 648 209 list;
#X obj 648 31 bng 16 250 50 0 empty empty rumble! 0 -8 0 10 #00ff04 #000000 #000000;
#X msg 803 179 0 0;
#X obj 672 54 hsl 136 16 0 1 0 0 empty empty strength\ %\ 0-1 4 8 0 10 #fcfcfc #000000 #000000 0 1;
#X obj 690 80 hsl 136 16 0 5000 0 0 empty empty duration\ ms\ 0-5000 4 8 0 10 #fcfcfc #000000 #000000 0 1;
#X obj 687 107 t b f;
#X obj 669 156 pack 0 0;
#X listbox 669 180 15 0 0 0 - - - 0;
#X listbox 648 257 20 0 0 0 - - - 0;
#X obj 714 131 int;
#X obj 803 150 bng 16 250 50 0 empty empty stop 0 -8 0 10 #ff0400 #000000 #000000;
#N canvas 976 148 224 414 rgb 0;
#X obj 102 80 vsl 15 128 0 255 0 0 empty empty empty 0 -9 0 10 #0800fc #fcfcfc #000000 0 1;
#X obj 109 225 t b f;
#X obj 81 80 vsl 15 128 0 255 0 0 empty empty empty 0 -9 0 10 #00fc00 #000000 #000000 0 1;
#X obj 61 80 vsl 15 128 0 255 0 0 empty empty empty 0 -9 0 10 #fc0000 #000000 #000000 0 1;
#X obj 81 250 t b f;
#X obj 62 342 outlet;
#X text 59 56 RGB;
#X obj 62 313 pack 0 0 0;
#X obj 62 282 int;
#X obj 108 282 int;
#X obj 136 282 int;
#X connect 0 0 1 0;
#X connect 1 0 2 0;
#X connect 1 1 10 0;
#X connect 2 0 4 0;
#X connect 3 0 8 0;
#X connect 4 0 3 0;
#X connect 4 1 9 0;
#X connect 7 0 5 0;
#X connect 8 0 7 0;
#X connect 9 0 7 1;
#X connect 10 0 7 2;
#X coords 0 -1 1 1 80 170 2 50 50;
#X restore 415 54 pd rgb;
#X text 410 23 controller LED color;
#N canvas 63 88 450 300 pattern 0;
#X obj 59 28 inlet;
#X msg 59 196 \$1 250;
#X msg 59 150 0.8;
#X msg 118 150 0.4;
#X msg 184 150 0.8;
#X msg 258 150 0.4;
#X obj 59 55 t b b b b b;
#X msg 258 79 stop;
#X obj 59 229 outlet;
#X msg 380 149 0 0;
#X obj 118 121 delay 500;
#X obj 184 122 delay 500;
#X obj 258 121 delay 500;
#X connect 0 0 6 0;
#X connect 1 0 8 0;
#X connect 2 0 1 0;
#X connect 3 0 1 0;
#X connect 4 0 1 0;
#X connect 5 0 1 0;
#X connect 6 0 2 0;
#X connect 6 1 10 0;
#X connect 6 4 7 0;
#X connect 7 0 9 0;
#X connect 7 0 10 0;
#X connect 7 0 11 0;
#X connect 7 0 12 0;
#X connect 9 0 8 0;
#X connect 10 0 3 0;
#X connect 10 0 11 0;
#X connect 11 0 4 0;
#X connect 11 0 12 0;
#X connect 12 0 5 0;
#X restore 802 229 pd pattern;
#X obj 802 200 bng 16 250 50 0 empty empty empty 0 -8 0 10 #fcfcfc #000000 #000000;
#X text 716 22 joystick or controller rumble;
#X obj 648 317 send \$0-OSC;
#X obj 415 317 send \$0-OSC;
#X obj 648 286 oscformat /joyosc/devices/gc0/rumble;
#X obj 415 286 oscformat /joyosc/devices/gc0/color;
#X obj 23 26 tgl 16 0 empty empty empty 0 -8 0 10 #fcfcfc #000000 #000000 0 1;
#X obj 42 87 tgl 16 0 empty empty empty 0 -8 0 10 #fcfcfc #000000 #000000 0 1;
#X obj 23 317 send \$0-OSC;
#X floatatom 68 221 5 0 0 1 hz - - 0;
#X obj 52 158 tgl 16 0 empty empty empty 0 -8 0 10 #fcfcfc #000000 #000000 0 1;
#X text 76 157 controller sensors;
#X obj 23 54 oscformat /joyosc/devices/gc0/axes/triggers;
#X obj 42 115 oscformat /joyosc/devices/gc0/axes/normalize;
#X obj 52 186 oscformat /joyosc/devices/gc0/sensors;
#X obj 68 248 oscformat /joyosc/devices/gc0/sensors/rate;
#X text 56 24 controller axes;
#X connect 0 0 20 0;
#X connect 1 0 9 0;
#X connect 2 0 1 0;
#X connect 3 0 9 0;
#X connect 4 0 7 0;
#X connect 5 0 6 0;
#X connect 6 0 7 0;
#X connect 6 1 10 0;
#X connect 7 0 8 0;
#X connect 8 0 1 1;
#X connect 9 0 19 0;
#X connect 10 0 7 1;
#X connect 11 0 3 0;
#X connect 12 0 0 0;
#X connect 14 0 9 0;
#X connect 15 0 14 0;
#X connect 19 0 17 0;
#X connect 20 0 18 0;
#X connect 21 0 27 0;
#X connect 22 0 28 0;
#X connect 24 0 30 0;
#X connect 25 0 29 0;
#X connect 27 0 23 0;
#X connect 28 0 23 0;
#X connect 29 0 23 0;
#X connect 30 0 23 0;
#X restore 360 27 pd controller;
#N canvas 282 187 450 314 dynamic 0;
#X obj 38 116 t a a;
#X msg 38 49 gc0 color 255 0 255;
#X msg 118 179 set /joyosc/devices/\$1/\$2;
#X obj 118 145 list split 2;
#X obj 38 214 list split 2;
#X msg 53 81 gc1 color 255 255 0;
#X obj 118 264 s \$0-OSC;
#X text 183 61 messages with device \, parameter \, & values;
#X text 203 144 first OSC address;
#X text 129 214 ...then OSC arguments;
#X text 26 12 building the device message dynamically;
#X connect 0 0 4 0;
#X connect 0 1 3 0;
#X connect 1 0 0 0;
#X connect 2 0 6 0;
#X connect 3 0 2 0;
#X connect 4 1 6 0;
#X connect 5 0 0 0;
#X restore 360 87 pd dynamic devices;
#X connect 0 0 1 1;
#X connect 1 0 2 0;
#X connect 3 0 1 1;
#X connect 4 0 1 1;
#X connect 5 0 1 0;
#X connect 8 0 11 0;
#X connect 9 0 8 0;
#X connect 12 0 3 0;
#X connect 13 0 4 0;
#X restore 322 122 pd send control;
#X text 427 121 <--- send to joyosc;
#X text 81 454 button 0 or 1;
#X text 102 393 axis -32768 to 32767;
#X obj 29 122 route devices notifications query;
#N canvas 179 68 595 398 recv 0;
#X obj 39 30 inlet;
#X listbox 178 104 50 0 0 0 - - - 0;
#X obj 39 72 route count device;
#X obj 178 133 route controller joystick;
#X obj 178 165 unpack f s f f f f f f;
#X obj 297 335 tgl 16 0 empty empty rumble 0 -8 0 10 #fcfcfc #000000 #000000 0 1;
#X obj 340 335 tgl 16 0 empty empty led 0 -8 0 10 #fcfcfc #000000 #000000 0 1;
#X floatatom 156 199 0 0 0 0 id - - 0;
#X listbox 180 222 0 0 0 0 address - - 0;
#X obj 529 335 tgl 16 0 empty empty rumble 0 -8 0 10 #fcfcfc #000000 #000000 0 1;
#X floatatom 391 199 0 0 0 0 id - - 0;
#X listbox 415 222 0 0 0 0 address - - 0;
#X obj 410 165 unpack f s f f f f f;
#X text 159 30 device query messages;
#X obj 39 165 print joyosc query;
#X floatatom 39 104 5 0 0 0 count - - 0;
#X floatatom 203 247 0 0 0 0 buttons - - 0;
#X floatatom 222 272 0 0 0 0 axes - - 0;
#X floatatom 244 294 0 0 0 0 touchpads - - 0;
#X floatatom 266 317 0 0 0 0 sensors - - 0;
#X floatatom 434 247 0 0 0 0 buttons - - 0;
#X floatatom 453 272 0 0 0 0 axes - - 0;
#X floatatom 475 294 0 0 0 0 balls - - 0;
#X floatatom 497 317 0 0 0 0 hats - - 0;
#X obj 178 72 list;
#X msg 39 133 \$1 device(s);
#X connect 0 0 2 0;
#X connect 0 0 24 0;
#X connect 2 0 15 0;
#X connect 2 1 14 0;
#X connect 2 1 3 0;
#X connect 3 0 4 0;
#X connect 3 1 12 0;
#X connect 4 0 7 0;
#X connect 4 1 8 0;
#X connect 4 2 16 0;
#X connect 4 3 17 0;
#X connect 4 4 18 0;
#X connect 4 5 19 0;
#X connect 4 6 5 0;
#X connect 4 7 6 0;
#X connect 12 0 10 0;
#X connect 12 1 11 0;
#X connect 12 2 20 0;
#X connect 12 3 21 0;
#X connect 12 4 22 0;
#X connect 12 5 23 0;
#X connect 12 6 9 0;
#X connect 15 0 25 0;
#X connect 24 0 1 0;
#X connect 25 0 14 0;
#X restore 322 156 pd recv device query;
#X obj 746 328 unpack s f s;
#X listbox 857 357 0 0 0 0 address - - 0;
#X text 194 269 (track)ball;
#X listbox 417 297 0 0 0 0 extra - - 0;
#X obj 417 270 list;
#X text 452 271 touchpad \, sensor;
#N canvas 108 36 672 529 accel 0;
#X obj 42 77 route accel;
#X obj 42 104 unpack f f f;
#X obj 101 189 f;
#X obj 136 190 + 1;
#X msg 136 243 0;
#X obj 61 269 array set \$0-x;
#X obj 42 164 t b f b;
#X obj 42 322 array sum \$0-x;
#X obj 69 350 array size \$0-x;
#X obj 42 293 t b b;
#X obj 54 374 /;
#X floatatom 54 399 8 0 0 1 smoothed\ x - - 0;
#X floatatom 42 134 10 0 0 1 x - - 0;
#N canvas 0 22 450 278 (subpatch) 0;
#X array \$0-x 10 float 2;
#X coords 0 3 10 -3 100 70 1 0 0;
#X restore 529 143 graph;
#X obj 57 427 hsl 90 16 -3 3 0 0 empty empty empty -2 -10 0 12 #fcfcfc #000000 #000000 0 1;
#X obj 421 189 f;
#X obj 456 190 + 1;
#X msg 456 243 0;
#X obj 362 164 t b f b;
#X obj 362 293 t b b;
#X obj 374 374 /;
#X floatatom 374 399 8 0 0 1 smoothed\ z - - 0;
#X floatatom 362 134 10 0 0 1 z - - 0;
#N canvas 0 22 450 278 (subpatch) 0;
#X array \$0-z 10 float 2;
#X coords 0 3 10 -3 100 70 1 0 0;
#X restore 529 341 graph;
#X obj 389 350 array size \$0-z;
#X obj 362 322 array sum \$0-z;
#X obj 381 269 array set \$0-z;
#X obj 374 429 vsl 16 70 -3 3 0 0 empty empty empty 0 -9 0 10 #fcfcfc #000000 #000000 0 1;
#X obj 136 218 sel 10;
#X obj 456 218 sel 10;
#X obj 42 48 route sensor;
#N canvas 0 22 450 278 (subpatch) 0;
#X array \$0-y 10 float 2;
#X coords 0 3 10 -3 100 70 1 0 0;
#X restore 529 242 graph;
#X obj 262 214 f;
#X obj 297 215 + 1;
#X msg 297 268 0;
#X obj 203 189 t b f b;
#X obj 230 375 array size \$0-x;
#X obj 203 318 t b b;
#X obj 215 399 /;
#X floatatom 215 424 8 0 0 1 smoothed\ y - - 0;
#X floatatom 203 134 10 0 0 1 y - - 0;
#X obj 218 452 hsl 90 16 -3 3 0 0 empty empty empty -2 -10 0 12 #fcfcfc #000000 #000000 0 1;
#X obj 297 243 sel 10;
#X obj 203 347 array sum \$0-y;
#X obj 222 294 array set \$0-y;
#X text 168 28 example: smooth raw sensor values using a moving average;
#X obj 42 18 r gc0-extra;
#X text 168 47 enable sensors: joyosc -s/--sensors;
#X text 275 163 gravity;
#X obj 203 164 - 9.80665;
#X connect 0 0 1 0;
#X connect 1 0 12 0;
#X connect 1 1 40 0;
#X connect 1 2 22 0;
#X connect 2 0 3 0;
#X connect 2 0 5 1;
#X connect 3 0 2 1;
#X connect 3 0 28 0;
#X connect 4 0 2 1;
#X connect 6 0 9 0;
#X connect 6 1 5 0;
#X connect 6 2 2 0;
#X connect 7 0 10 0;
#X connect 8 0 10 1;
#X connect 9 0 7 0;
#X connect 9 1 8 0;
#X connect 10 0 11 0;
#X connect 11 0 14 0;
#X connect 12 0 6 0;
#X connect 15 0 16 0;
#X connect 15 0 26 1;
#X connect 16 0 15 1;
#X connect 16 0 29 0;
#X connect 17 0 15 1;
#X connect 18 0 19 0;
#X connect 18 1 26 0;
#X connect 18 2 15 0;
#X connect 19 0 25 0;
#X connect 19 1 24 0;
#X connect 20 0 21 0;
#X connect 21 0 27 0;
#X connect 22 0 18 0;
#X connect 24 0 20 1;
#X connect 25 0 20 0;
#X connect 28 0 4 0;
#X connect 29 0 17 0;
#X connect 30 0 0 0;
#X connect 32 0 33 0;
#X connect 32 0 44 1;
#X connect 33 0 32 1;
#X connect 33 0 42 0;
#X connect 34 0 32 1;
#X connect 35 0 37 0;
#X connect 35 1 44 0;
#X connect 35 2 32 0;
#X connect 36 0 38 1;
#X connect 37 0 43 0;
#X connect 37 1 36 0;
#X connect 38 0 39 0;
#X connect 39 0 41 0;
#X connect 40 0 49 0;
#X connect 42 0 34 0;
#X connect 43 0 38 0;
#X connect 46 0 30 0;
#X connect 49 0 35 0;
#X restore 634 156 pd accel smoothing;
#N canvas 391 131 395 272 joystick 0;
#X obj 24 19 r js0-hat;
#X obj 24 190 j_hatdir;
#X listbox 24 228 20 0 0 0 - - - 0;
#X text 93 18 converting joystick hat bitmasks to directions;
#X msg 40 85 0;
#X msg 188 121 3;
#X msg 225 121 6;
#X msg 73 85 1;
#X msg 108 85 2;
#X msg 144 85 4;
#X msg 179 85 8;
#X msg 259 121 9;
#X msg 297 121 12;
#X text 83 189 <-- see help;
#X floatatom 24 54 5 0 0 0 - - - 0;
#X connect 0 0 14 0;
#X connect 1 0 2 0;
#X connect 4 0 1 0;
#X connect 5 0 1 0;
#X connect 6 0 1 0;
#X connect 7 0 1 0;
#X connect 8 0 1 0;
#X connect 9 0 1 0;
#X connect 10 0 1 0;
#X connect 11 0 1 0;
#X connect 12 0 1 0;
#X connect 14 0 1 0;
#X restore 634 87 pd joystick hat directions;
#N canvas 162 42 614 575 controller 0;
#X obj 38 375 hsl 120 19 -32768 32767 0 0 empty empty empty -2 -10 0 12 #fcfcfc #000000 #000000 0 1;
#X floatatom 35 408 14 0 0 1 default\ -32768\ -\ 32767 - - 0;
#X obj 38 519 hsl 120 19 -1 1 0 0 empty empty empty -2 -10 0 12 #fcfcfc #000000 #000000 0 1;
#X floatatom 35 480 9 0 0 1 signed\ normalized - - 0;
#X msg 61 345 0;
#X obj 402 519 hsl 120 19 0 127 0 0 empty empty empty -2 -10 0 12 #fcfcfc #000000 #000000 0 1;
#X floatatom 399 480 9 0 0 1 MIDI - - 0;
#X obj 213 519 hsl 120 19 0 1 0 0 empty empty empty -2 -10 0 12 #fcfcfc #000000 #000000 0 1;
#X floatatom 210 480 9 0 0 1 normalized - - 0;
#X text 95 344 center;
#X text 194 377 these are used internally by [j_joystick] and [j_controller];
#X obj 35 43 r gc0-axis;
#X obj 35 78 route leftx;
#X obj 77 296 hsl 120 19 -1 1 0 0 empty empty empty -2 -10 0 12 #fcfcfc #000000 #000000 0 1;
#X floatatom 74 257 9 0 0 1 signed\ normalized - - 0;
#X obj 441 296 hsl 120 19 0 127 0 0 empty empty empty -2 -10 0 12 #fcfcfc #000000 #000000 0 1;
#X floatatom 438 257 9 0 0 1 MIDI - - 0;
#X obj 252 296 hsl 120 19 0 1 0 0 empty empty empty -2 -10 0 12 #fcfcfc #000000 #000000 0 1;
#X floatatom 249 257 9 0 0 1 normalized - - 0;
#X obj 438 222 expr $f1 * 63.5 + 63.5;
#X obj 249 222 expr ($f1 * 0.5) + 0.5;
#N canvas 188 227 216 316 mux2 0;
#X obj 19 37 inlet;
#X obj 19 217 route one two;
#X obj 19 188 list trim;
#X obj 88 36 inlet;
#X obj 19 277 outlet;
#X obj 56 249 outlet;
#X msg 88 99 one;
#X msg 107 126 two;
#X obj 19 158 list prepend;
#X obj 88 62 sel 0 1;
#X obj 145 63 loadbang;
#X connect 0 0 8 0;
#X connect 1 0 4 0;
#X connect 1 1 5 0;
#X connect 2 0 1 0;
#X connect 3 0 9 0;
#X connect 6 0 8 1;
#X connect 7 0 8 1;
#X connect 8 0 2 0;
#X connect 9 0 6 0;
#X connect 9 1 7 0;
#X connect 10 0 6 0;
#X restore 35 157 pd mux2;
#X obj 74 187 t a;
#X obj 74 110 vradio 16 1 0 2 empty empty empty 0 -8 0 10 #fcfcfc #000000 #000000 0;
#X text 107 186 normalized -1 - 1;
#X text 30 9 converting axis values;
#X text 94 127 normalized \, joyosc -n/--norm;
#X text 93 110 default;
#X obj 35 445 j_atosn;
#X obj 210 445 j_aton;
#X obj 399 445 j_atom;
#X connect 0 0 1 0;
#X connect 1 0 28 0;
#X connect 1 0 29 0;
#X connect 1 0 30 0;
#X connect 3 0 2 0;
#X connect 4 0 0 0;
#X connect 6 0 5 0;
#X connect 8 0 7 0;
#X connect 11 0 12 0;
#X connect 12 0 21 0;
#X connect 14 0 13 0;
#X connect 16 0 15 0;
#X connect 18 0 17 0;
#X connect 19 0 16 0;
#X connect 20 0 18 0;
#X connect 21 0 0 0;
#X connect 21 1 22 0;
#X connect 22 0 19 0;
#X connect 22 0 14 0;
#X connect 22 0 20 0;
#X connect 23 0 21 1;
#X connect 28 0 3 0;
#X connect 29 0 8 0;
#X connect 30 0 6 0;
#X restore 634 122 pd controller axis range;
#X connect 4 0 5 0;
#X connect 4 1 6 0;
#X connect 9 0 7 0;
#X connect 9 1 8 0;
#X connect 13 0 11 0;
#X connect 13 1 12 0;
#X connect 26 0 22 0;
#X connect 26 1 18 0;
#X connect 27 0 21 0;
#X connect 27 1 17 0;
#X connect 28 0 46 0;
#X connect 29 0 30 1;
#X connect 30 0 28 0;
#X connect 31 0 30 0;
#X connect 33 0 14 0;
#X connect 33 1 15 0;
#X connect 33 2 34 0;
#X connect 35 0 27 0;
#X connect 35 1 26 0;
#X connect 35 2 52 0;
#X connect 36 0 4 0;
#X connect 36 1 9 0;
#X connect 36 2 13 0;
#X connect 36 3 33 0;
#X connect 39 0 0 0;
#X connect 39 1 1 0;
#X connect 39 2 2 0;
#X connect 39 2 40 0;
#X connect 39 3 3 0;
#X connect 39 3 40 0;
#X connect 40 0 48 0;
#X connect 46 0 35 0;
#X connect 46 0 36 0;
#X connect 46 1 39 0;
#X connect 46 2 47 0;
#X connect 48 0 38 0;
#X connect 48 1 37 0;
#X connect 48 2 49 0;
#X connect 52 0 51 0;
