#N canvas 406 115 836 521 10;
#X declare -path ./joyosc;
#X obj 594 272 bng 15 250 50 0 empty empty empty 0 20 0 10 #fcfcfc #000000 #000000;
#X obj 639 274 bng 15 250 50 0 empty empty empty 0 20 0 10 #fcfcfc #000000 #000000;
#X obj 685 290 bng 15 250 50 0 empty empty open 0 20 0 10 #fcfcfc #000000 #000000;
#X obj 731 292 bng 15 250 50 0 empty empty close 0 20 0 10 #fcfcfc #000000 #000000;
#X obj 29 455 unpack;
#X floatatom 29 482 0 0 0 0 num - - 0;
#X floatatom 92 483 0 0 0 0 val - - 0;
#X floatatom 56 421 0 0 0 0 num - - 0;
#X floatatom 120 421 0 0 0 0 val - - 0;
#X obj 56 394 unpack;
#X text 616 488 robotcowboy.com | danomatika.com;
#X floatatom 83 360 0 0 0 0 num - - 0;
#X floatatom 147 360 0 0 0 0 val - - 0;
#X obj 83 333 unpack;
#X floatatom 110 300 0 0 0 0 num - - 0;
#X floatatom 169 301 0 0 0 0 xrel - - 0;
#X text 131 334 hat (dpad);
#X text 102 395 axis;
#X text 81 456 button;
#X text 194 273 ball (trackball);
#X floatatom 438 352 0 0 0 0 val - - 0;
#X floatatom 529 298 0 0 0 0 val - - 0;
#X text 490 267 axis;
#X text 394 322 button;
#X symbolatom 324 352 0 0 0 0 name - - 0;
#X symbolatom 417 298 0 0 0 0 name - - 0;
#X text 604 213 joyosc deamon events;
#X text 38 214 joystick events;
#X text 327 214 game controller events;
#X obj 417 268 unpack s f;
#X obj 324 322 unpack s f;
#X obj 29 122 route devices notifications;
#X obj 29 91 route joyosc;
#X obj 134 23 tgl 15 0 empty empty print_all_messages 17 7 0 10 #fcfcfc #000000 #000000 0 1;
#N canvas 0 22 418 314 oscreceive 0;
#X obj 110 131 oscparse;
#X obj 110 160 list trim;
#X obj 130 233 spigot;
#X obj 110 285 outlet;
#X obj 163 199 inlet;
#X obj 130 259 print OSC;
#X msg 175 70 listen 8880;
#X msg 110 69 listen 0;
#X obj 110 43 sel 0;
#X obj 110 104 netreceive -u -b;
#X obj 110 14 inlet;
#X connect 0 0 1 0;
#X connect 1 0 2 0;
#X connect 1 0 3 0;
#X connect 2 0 5 0;
#X connect 4 0 2 1;
#X connect 6 0 9 0;
#X connect 7 0 9 0;
#X connect 8 0 7 0;
#X connect 8 1 6 0;
#X connect 9 0 0 0;
#X connect 10 0 8 0;
#X coords 0 314 1 313 140 40 0;
#X restore 29 52 pd oscreceive 8880;
#X obj 29 22 tgl 15 0 empty empty listen 17 7 0 10 #fcfcfc #000000 #000000 0 1;
#X obj 320 23 declare -path ./joyosc;
#X obj 110 273 unpack f f f;
#X floatatom 230 301 0 0 0 0 yrel - - 0;
#X obj 324 237 j_controller gc0;
#X obj 29 237 j_joystick js0;
#X obj 706 326 unpack s f;
#X floatatom 791 356 0 0 0 0 id - - 0;
#X symbolatom 706 356 0 0 0 0 name - - 0;
#X obj 594 238 route ready shutdown open close;
#X obj 706 273 t a;
#X text 617 471 Dan Wilcox 2009 \, 2015 \, 2024;
#N canvas 121 146 709 588 send 0;
#X msg 407 475 disconnect;
#N canvas 0 25 356 247 oscsend 0;
#X obj 71 59 inlet;
#X obj 71 146 netsend -u -b;
#X obj 71 119 list trim;
#X obj 71 92 list prepend send;
#X obj 71 174 outlet;
#X obj 201 119 inlet;
#X connect 0 0 3 0;
#X connect 1 0 4 0;
#X connect 2 0 1 0;
#X connect 3 0 2 0;
#X connect 5 0 1 0;
#X restore 331 520 pd oscsend;
#X obj 331 546 tgl 15 0 empty empty connected 17 7 0 10 #fcfcfc #000000 #000000 0 1;
#X symbolatom 388 400 20 0 0 0 - - - 0;
#X obj 388 373 bng 15 250 50 0 empty empty empty 17 7 0 10 #fcfcfc #000000 #000000;
#X text 409 374 type hostname/ip below and hit enter;
#X obj 47 428 oscformat /joyosc/quit;
#X msg 47 402 bang;
#X msg 400 449 connect 127.0.0.1 7770;
#X msg 388 424 connect \$1 7770;
#X obj 98 308 oscformat /joyosc/devices/color;
#X obj 331 306 oscformat /joyosc/devices/rumble;
#X listbox 98 280 20 0 0 0 - - - 0;
#X listbox 191 217 10 0 0 1 address - - 0;
#X obj 98 251 list prepend gc0;
#X obj 331 246 list prepend gc0;
#X listbox 424 217 10 0 0 0 address - - 0;
#X obj 331 217 list;
#X obj 331 39 bng 16 250 50 0 empty empty rumble! 0 -8 0 10 #00ff04 #000000 #000000;
#X msg 496 217 0 0;
#X obj 355 62 hsl 136 16 0 1 0 0 empty empty strength\ %\ 0-1 4 8 0 10 #fcfcfc #000000 #000000 0 1;
#X obj 373 88 hsl 136 16 0 5000 0 0 empty empty duration\ ms\ 0-5000 4 8 0 10 #fcfcfc #000000 #000000 0 1;
#X obj 370 115 t b f;
#X obj 352 164 pack 0 0;
#X listbox 352 188 15 0 0 0 - - - 0;
#X listbox 331 278 20 0 0 0 - - - 0;
#X obj 397 139 int;
#X obj 496 184 bng 16 250 50 0 empty empty stop 0 -8 0 10 #ff0400 #000000 #000000;
#N canvas 976 148 224 414 rgb 0;
#X obj 102 80 vsl 15 128 0 255 0 0 empty empty empty 0 -9 0 10 #0800fc #fcfcfc #000000 0 1;
#X obj 109 225 t b f;
#X obj 81 80 vsl 15 128 0 255 0 0 empty empty empty 0 -9 0 10 #00fc00 #000000 #000000 0 1;
#X obj 61 80 vsl 15 128 0 255 0 0 empty empty empty 0 -9 0 10 #fc0000 #000000 #000000 0 1;
#X obj 81 250 t b f;
#X obj 62 342 outlet;
#X text 59 56 RGB;
#X obj 62 313 pack 0 0 0;
#X obj 62 282 int;
#X obj 108 282 int;
#X obj 136 282 int;
#X connect 0 0 1 0;
#X connect 1 0 2 0;
#X connect 1 1 10 0;
#X connect 2 0 4 0;
#X connect 3 0 8 0;
#X connect 4 0 3 0;
#X connect 4 1 9 0;
#X connect 7 0 5 0;
#X connect 8 0 7 0;
#X connect 9 0 7 1;
#X connect 10 0 7 2;
#X coords 0 -1 1 1 80 170 2 50 50;
#X restore 98 62 pd rgb;
#X text 102 30 controller LED color;
#X text 560 449 <---- start here;
#X text 41 374 quit joyosc;
#N canvas 63 88 450 300 pattern 0;
#X obj 59 28 inlet;
#X msg 59 196 \$1 250;
#X msg 59 150 0.8;
#X msg 118 150 0.4;
#X msg 184 150 0.8;
#X msg 258 150 0.4;
#X obj 59 55 t b b b b b;
#X msg 258 79 stop;
#X obj 59 229 outlet;
#X msg 380 149 0 0;
#X obj 118 121 delay 500;
#X obj 184 122 delay 500;
#X obj 258 121 delay 500;
#X connect 0 0 6 0;
#X connect 1 0 8 0;
#X connect 2 0 1 0;
#X connect 3 0 1 0;
#X connect 4 0 1 0;
#X connect 5 0 1 0;
#X connect 6 0 2 0;
#X connect 6 1 10 0;
#X connect 6 4 7 0;
#X connect 7 0 9 0;
#X connect 7 0 10 0;
#X connect 7 0 11 0;
#X connect 7 0 12 0;
#X connect 9 0 8 0;
#X connect 10 0 3 0;
#X connect 10 0 11 0;
#X connect 11 0 4 0;
#X connect 11 0 12 0;
#X connect 12 0 5 0;
#X restore 496 142 pd pattern;
#X obj 496 118 bng 16 250 50 0 empty empty empty 0 -8 0 10 #fcfcfc #000000 #000000;
#X text 399 30 joystick or controller rumble;
#X connect 0 0 1 1;
#X connect 1 0 2 0;
#X connect 3 0 9 0;
#X connect 4 0 3 0;
#X connect 6 0 1 0;
#X connect 7 0 6 0;
#X connect 8 0 1 1;
#X connect 9 0 1 1;
#X connect 10 0 1 0;
#X connect 11 0 1 0;
#X connect 12 0 10 0;
#X connect 13 0 14 1;
#X connect 14 0 12 0;
#X connect 15 0 25 0;
#X connect 16 0 15 1;
#X connect 17 0 15 0;
#X connect 18 0 17 0;
#X connect 19 0 15 0;
#X connect 20 0 23 0;
#X connect 21 0 22 0;
#X connect 22 0 23 0;
#X connect 22 1 26 0;
#X connect 23 0 24 0;
#X connect 24 0 17 1;
#X connect 25 0 11 0;
#X connect 26 0 23 1;
#X connect 27 0 19 0;
#X connect 28 0 14 0;
#X connect 32 0 15 0;
#X connect 33 0 32 0;
#X restore 322 122 pd send control;
#X text 427 122 <--- send to joyosc;
#X connect 4 0 5 0;
#X connect 4 1 6 0;
#X connect 9 0 7 0;
#X connect 9 1 8 0;
#X connect 13 0 11 0;
#X connect 13 1 12 0;
#X connect 29 0 25 0;
#X connect 29 1 21 0;
#X connect 30 0 24 0;
#X connect 30 1 20 0;
#X connect 31 0 39 0;
#X connect 31 0 40 0;
#X connect 31 1 44 0;
#X connect 32 0 31 0;
#X connect 33 0 34 1;
#X connect 34 0 32 0;
#X connect 35 0 34 0;
#X connect 37 0 14 0;
#X connect 37 1 15 0;
#X connect 37 2 38 0;
#X connect 39 0 30 0;
#X connect 39 1 29 0;
#X connect 40 0 4 0;
#X connect 40 1 9 0;
#X connect 40 2 13 0;
#X connect 40 3 37 0;
#X connect 41 0 43 0;
#X connect 41 1 42 0;
#X connect 44 0 0 0;
#X connect 44 1 1 0;
#X connect 44 2 2 0;
#X connect 44 2 45 0;
#X connect 44 3 3 0;
#X connect 44 3 45 0;
#X connect 45 0 41 0;
