#N canvas 211 25 864 520 10;
#X declare -path ./joyosc;
#X obj 594 272 bng 15 250 50 0 empty empty empty 0 20 0 10 #fcfcfc #000000 #000000;
#X obj 639 274 bng 15 250 50 0 empty empty empty 0 20 0 10 #fcfcfc #000000 #000000;
#X obj 685 290 bng 15 250 50 0 empty empty open 0 20 0 10 #fcfcfc #000000 #000000;
#X obj 731 292 bng 15 250 50 0 empty empty close 0 20 0 10 #fcfcfc #000000 #000000;
#X obj 29 455 unpack;
#X floatatom 29 482 0 0 0 0 num - - 0;
#X floatatom 92 483 0 0 0 0 val - - 0;
#X floatatom 56 421 0 0 0 0 num - - 0;
#X floatatom 120 421 0 0 0 0 val - - 0;
#X obj 56 394 unpack;
#X text 636 488 robotcowboy.com | danomatika.com;
#X floatatom 83 360 0 0 0 0 num - - 0;
#X floatatom 147 360 0 0 0 0 val - - 0;
#X obj 83 333 unpack;
#X floatatom 110 300 0 0 0 0 num - - 0;
#X floatatom 169 301 0 0 0 0 xrel - - 0;
#X text 131 334 hat (dpad);
#X text 194 273 ball (trackball);
#X floatatom 438 352 0 0 0 0 val - - 0;
#X floatatom 529 298 0 0 0 0 val - - 0;
#X text 490 267 axis;
#X text 394 322 button;
#X symbolatom 324 352 0 0 0 0 name - - 0;
#X symbolatom 417 298 0 0 0 0 name - - 0;
#X text 604 213 joyosc deamon events;
#X text 38 214 joystick events;
#X text 327 214 game controller events;
#X obj 417 268 unpack s f;
#X obj 324 322 unpack s f;
#X obj 29 91 route joyosc;
#X obj 134 23 tgl 15 0 empty empty print_all_messages 17 7 0 10 #fcfcfc #000000 #000000 0 1;
#N canvas 0 22 418 314 oscreceive 0;
#X obj 110 131 oscparse;
#X obj 110 160 list trim;
#X obj 130 233 spigot;
#X obj 110 285 outlet;
#X obj 163 199 inlet;
#X obj 130 259 print OSC;
#X msg 175 70 listen 8880;
#X msg 110 69 listen 0;
#X obj 110 43 sel 0;
#X obj 110 104 netreceive -u -b;
#X obj 110 14 inlet;
#X connect 0 0 1 0;
#X connect 1 0 2 0;
#X connect 1 0 3 0;
#X connect 2 0 5 0;
#X connect 4 0 2 1;
#X connect 6 0 9 0;
#X connect 7 0 9 0;
#X connect 8 0 7 0;
#X connect 8 1 6 0;
#X connect 9 0 0 0;
#X connect 10 0 8 0;
#X coords 0 314 1 313 140 40 0;
#X restore 29 52 pd oscreceive 8880;
#X obj 29 22 tgl 15 0 empty empty listen 17 7 0 10 #fcfcfc #000000 #000000 0 1;
#X obj 320 23 declare -path ./joyosc;
#X obj 110 273 unpack f f f;
#X floatatom 230 301 0 0 0 0 yrel - - 0;
#X obj 324 237 j_controller gc0;
#X obj 29 237 j_joystick js0;
#X floatatom 740 355 0 0 0 0 id - - 0;
#X symbolatom 649 354 0 0 0 0 type - - 0;
#X obj 594 238 route ready shutdown open close;
#X obj 706 273 t a;
#X text 637 471 Dan Wilcox 2009 \, 2015 \, 2024;
#N canvas 361 89 935 504 send 0;
#X msg 95 154 disconnect;
#N canvas 0 25 356 247 oscsend 0;
#X obj 71 59 inlet;
#X obj 71 146 netsend -u -b;
#X obj 71 119 list trim;
#X obj 71 92 list prepend send;
#X obj 71 174 outlet;
#X obj 201 119 inlet;
#X connect 0 0 3 0;
#X connect 1 0 4 0;
#X connect 2 0 1 0;
#X connect 3 0 2 0;
#X connect 5 0 1 0;
#X restore 19 179 pd oscsend;
#X obj 19 205 tgl 15 0 empty empty connected 17 7 0 10 #fcfcfc #000000 #000000 0 1;
#X symbolatom 76 79 20 0 0 0 - - - 0;
#X obj 76 52 bng 15 250 50 0 empty empty empty 17 7 0 10 #fcfcfc #000000 #000000;
#X text 97 53 type hostname/ip below and hit enter;
#X obj 367 437 oscformat /joyosc/quit;
#X msg 367 411 bang;
#X msg 88 128 connect 127.0.0.1 7770;
#X msg 76 103 connect \$1 7770;
#X obj 365 300 oscformat /joyosc/devices/color;
#X obj 598 298 oscformat /joyosc/devices/rumble;
#X listbox 365 272 20 0 0 0 - - - 0;
#X listbox 458 209 10 0 0 1 address - - 0;
#X obj 365 243 list prepend gc0;
#X obj 598 238 list prepend gc0;
#X listbox 691 209 10 0 0 0 address - - 0;
#X obj 598 209 list;
#X obj 598 31 bng 16 250 50 0 empty empty rumble! 0 -8 0 10 #00ff04 #000000 #000000;
#X msg 763 209 0 0;
#X obj 622 54 hsl 136 16 0 1 0 0 empty empty strength\ %\ 0-1 4 8 0 10 #fcfcfc #000000 #000000 0 1;
#X obj 640 80 hsl 136 16 0 5000 0 0 empty empty duration\ ms\ 0-5000 4 8 0 10 #fcfcfc #000000 #000000 0 1;
#X obj 637 107 t b f;
#X obj 619 156 pack 0 0;
#X listbox 619 180 15 0 0 0 - - - 0;
#X listbox 598 270 20 0 0 0 - - - 0;
#X obj 664 131 int;
#X obj 763 176 bng 16 250 50 0 empty empty stop 0 -8 0 10 #ff0400 #000000 #000000;
#N canvas 976 148 224 414 rgb 0;
#X obj 102 80 vsl 15 128 0 255 0 0 empty empty empty 0 -9 0 10 #0800fc #fcfcfc #000000 0 1;
#X obj 109 225 t b f;
#X obj 81 80 vsl 15 128 0 255 0 0 empty empty empty 0 -9 0 10 #00fc00 #000000 #000000 0 1;
#X obj 61 80 vsl 15 128 0 255 0 0 empty empty empty 0 -9 0 10 #fc0000 #000000 #000000 0 1;
#X obj 81 250 t b f;
#X obj 62 342 outlet;
#X text 59 56 RGB;
#X obj 62 313 pack 0 0 0;
#X obj 62 282 int;
#X obj 108 282 int;
#X obj 136 282 int;
#X connect 0 0 1 0;
#X connect 1 0 2 0;
#X connect 1 1 10 0;
#X connect 2 0 4 0;
#X connect 3 0 8 0;
#X connect 4 0 3 0;
#X connect 4 1 9 0;
#X connect 7 0 5 0;
#X connect 8 0 7 0;
#X connect 9 0 7 1;
#X connect 10 0 7 2;
#X coords 0 -1 1 1 80 170 2 50 50;
#X restore 365 54 pd rgb;
#X text 360 23 controller LED color;
#X text 365 383 quit joyosc;
#N canvas 63 88 450 300 pattern 0;
#X obj 59 28 inlet;
#X msg 59 196 \$1 250;
#X msg 59 150 0.8;
#X msg 118 150 0.4;
#X msg 184 150 0.8;
#X msg 258 150 0.4;
#X obj 59 55 t b b b b b;
#X msg 258 79 stop;
#X obj 59 229 outlet;
#X msg 380 149 0 0;
#X obj 118 121 delay 500;
#X obj 184 122 delay 500;
#X obj 258 121 delay 500;
#X connect 0 0 6 0;
#X connect 1 0 8 0;
#X connect 2 0 1 0;
#X connect 3 0 1 0;
#X connect 4 0 1 0;
#X connect 5 0 1 0;
#X connect 6 0 2 0;
#X connect 6 1 10 0;
#X connect 6 4 7 0;
#X connect 7 0 9 0;
#X connect 7 0 10 0;
#X connect 7 0 11 0;
#X connect 7 0 12 0;
#X connect 9 0 8 0;
#X connect 10 0 3 0;
#X connect 10 0 11 0;
#X connect 11 0 4 0;
#X connect 11 0 12 0;
#X connect 12 0 5 0;
#X restore 842 209 pd pattern;
#X obj 842 175 bng 16 250 50 0 empty empty empty 0 -8 0 10 #fcfcfc #000000 #000000;
#X text 666 22 joystick or controller rumble;
#X msg 19 286 bang;
#X obj 19 312 oscformat /joyosc/query/count;
#X msg 64 348 bang;
#X obj 64 437 oscformat /joyosc/query;
#X msg 101 376 0;
#X msg 131 404 symbol gc0;
#X obj 19 22 r \$0-OSC;
#X obj 598 330 send \$0-OSC;
#X obj 367 465 send \$0-OSC;
#X text 15 255 query active devices;
#X text 57 286 device count;
#X text 102 346 all devices;
#X text 130 376 by device index;
#X text 207 403 by device address;
#X obj 64 465 send \$0-OSC;
#X text 232 128 <-- start here;
#X obj 365 330 send \$0-OSC;
#X connect 0 0 1 1;
#X connect 1 0 2 0;
#X connect 3 0 9 0;
#X connect 4 0 3 0;
#X connect 6 0 42 0;
#X connect 7 0 6 0;
#X connect 8 0 1 1;
#X connect 9 0 1 1;
#X connect 10 0 50 0;
#X connect 11 0 41 0;
#X connect 12 0 10 0;
#X connect 13 0 14 1;
#X connect 14 0 12 0;
#X connect 15 0 25 0;
#X connect 16 0 15 1;
#X connect 17 0 15 0;
#X connect 18 0 17 0;
#X connect 19 0 15 0;
#X connect 20 0 23 0;
#X connect 21 0 22 0;
#X connect 22 0 23 0;
#X connect 22 1 26 0;
#X connect 23 0 24 0;
#X connect 24 0 17 1;
#X connect 25 0 11 0;
#X connect 26 0 23 1;
#X connect 27 0 19 0;
#X connect 28 0 14 0;
#X connect 31 0 15 0;
#X connect 32 0 31 0;
#X connect 34 0 35 0;
#X connect 35 0 48 0;
#X connect 36 0 37 0;
#X connect 37 0 48 0;
#X connect 38 0 37 0;
#X connect 39 0 37 0;
#X connect 40 0 1 0;
#X restore 322 122 pd send control;
#X text 427 121 <--- send to joyosc;
#X text 81 456 button 0 or 1;
#X text 102 395 axis -32768 to 32767;
#N canvas 249 115 649 478 converting 0;
#X obj 38 75 hsl 162 19 -32768 32767 0 0 empty empty empty -2 -10 0 12 #fcfcfc #000000 #000000 0 1;
#X floatatom 35 108 14 0 0 1 HID - - 0;
#X floatatom 35 169 14 0 0 0 - - - 0;
#X obj 38 349 hsl 162 19 0 1 0 0 empty empty empty -2 -10 0 12 #fcfcfc #000000 #000000 0 1;
#X obj 35 230 int;
#X floatatom 35 310 9 0 0 1 normalized - - 0;
#X obj 35 135 expr ($f1 + 32768) / 65535;
#X msg 35 40 0;
#X obj 35 200 * 100000;
#X obj 35 260 / 100000;
#X floatatom 35 432 15 0 0 1 HID - - 0;
#X obj 35 387 expr ($f1 * 65535) - 32768;
#X text 82 230 avoid rounding errors at the cost of a little precision;
#X obj 252 386 hsl 162 19 0 127 0 0 empty empty empty -2 -10 0 12 #fcfcfc #000000 #000000 0 1;
#X obj 249 324 * 127;
#X floatatom 249 355 5 0 0 1 MIDI - - 0;
#X obj 449 386 hsl 162 19 -1 1 0 0 empty empty empty -2 -10 0 12 #fcfcfc #000000 #000000 0 1;
#X floatatom 446 355 5 0 0 1 normalized\ (signed) - - 0;
#X obj 446 324 expr ($f1 * 2) - 1;
#X text 30 9 converting HID -32768 to 32767;
#X text 69 40 center;
#X connect 0 0 1 0;
#X connect 1 0 6 0;
#X connect 2 0 8 0;
#X connect 3 0 11 0;
#X connect 4 0 9 0;
#X connect 5 0 3 0;
#X connect 6 0 2 0;
#X connect 7 0 0 0;
#X connect 8 0 4 0;
#X connect 9 0 5 0;
#X connect 9 0 14 0;
#X connect 9 0 18 0;
#X connect 11 0 10 0;
#X connect 14 0 15 0;
#X connect 15 0 13 0;
#X connect 17 0 16 0;
#X connect 18 0 17 0;
#X restore 324 418 pd converting axis range;
#X obj 29 122 route devices notifications query;
#N canvas 179 68 595 398 recv 0;
#X obj 39 30 inlet;
#X listbox 178 104 50 0 0 0 - - - 0;
#X msg 39 133 \$1 devices;
#X obj 39 72 route count device;
#X obj 178 133 route controller joystick;
#X obj 178 165 unpack f s f f f f f f;
#X obj 297 335 tgl 16 0 empty empty rumble 0 -8 0 10 #fcfcfc #000000 #000000 0 1;
#X obj 340 335 tgl 16 0 empty empty led 0 -8 0 10 #fcfcfc #000000 #000000 0 1;
#X floatatom 156 199 0 0 0 0 id - - 0;
#X listbox 180 222 0 0 0 0 address - - 0;
#X obj 529 335 tgl 16 0 empty empty rumble 0 -8 0 10 #fcfcfc #000000 #000000 0 1;
#X floatatom 391 199 0 0 0 0 id - - 0;
#X listbox 415 222 0 0 0 0 address - - 0;
#X obj 410 165 unpack f s f f f f f;
#X text 159 30 device query messages;
#X obj 39 165 print joyosc query;
#X floatatom 39 104 5 0 0 0 count - - 0;
#X floatatom 203 247 0 0 0 0 buttons - - 0;
#X floatatom 222 272 0 0 0 0 axes - - 0;
#X floatatom 244 294 0 0 0 0 touchpads - - 0;
#X floatatom 266 317 0 0 0 0 sensors - - 0;
#X floatatom 434 247 0 0 0 0 buttons - - 0;
#X floatatom 453 272 0 0 0 0 axes - - 0;
#X floatatom 475 294 0 0 0 0 balls - - 0;
#X floatatom 497 317 0 0 0 0 hats - - 0;
#X obj 178 72 list;
#X connect 0 0 3 0;
#X connect 0 0 25 0;
#X connect 2 0 15 0;
#X connect 3 0 16 0;
#X connect 3 1 15 0;
#X connect 3 1 4 0;
#X connect 4 0 5 0;
#X connect 4 1 13 0;
#X connect 5 0 8 0;
#X connect 5 1 9 0;
#X connect 5 2 17 0;
#X connect 5 3 18 0;
#X connect 5 4 19 0;
#X connect 5 5 20 0;
#X connect 5 6 6 0;
#X connect 5 7 7 0;
#X connect 13 0 11 0;
#X connect 13 1 12 0;
#X connect 13 2 21 0;
#X connect 13 3 22 0;
#X connect 13 4 23 0;
#X connect 13 5 24 0;
#X connect 13 6 10 0;
#X connect 16 0 2 0;
#X connect 25 0 1 0;
#X restore 322 156 pd recv device query;
#X obj 706 326 unpack s f s;
#X listbox 817 355 0 0 0 0 address - - 0;
#X connect 4 0 5 0;
#X connect 4 1 6 0;
#X connect 9 0 7 0;
#X connect 9 1 8 0;
#X connect 13 0 11 0;
#X connect 13 1 12 0;
#X connect 27 0 23 0;
#X connect 27 1 19 0;
#X connect 28 0 22 0;
#X connect 28 1 18 0;
#X connect 29 0 48 0;
#X connect 30 0 31 1;
#X connect 31 0 29 0;
#X connect 32 0 31 0;
#X connect 34 0 14 0;
#X connect 34 1 15 0;
#X connect 34 2 35 0;
#X connect 36 0 28 0;
#X connect 36 1 27 0;
#X connect 37 0 4 0;
#X connect 37 1 9 0;
#X connect 37 2 13 0;
#X connect 37 3 34 0;
#X connect 40 0 0 0;
#X connect 40 1 1 0;
#X connect 40 2 2 0;
#X connect 40 2 41 0;
#X connect 40 3 3 0;
#X connect 40 3 41 0;
#X connect 41 0 50 0;
#X connect 48 0 36 0;
#X connect 48 0 37 0;
#X connect 48 1 40 0;
#X connect 48 2 49 0;
#X connect 50 0 39 0;
#X connect 50 1 38 0;
#X connect 50 2 51 0;
