#N canvas 607 114 565 591 10;
#X declare -path ./joyosc -path mrpeach;
#X obj 29 61 unpackOSC;
#X obj 212 79 unpack 0 0 0 0;
#X floatatom 212 102 3 0 0 0 - - -, f 3;
#X floatatom 247 102 3 0 0 0 - - -, f 3;
#X floatatom 283 102 3 0 0 0 - - -, f 3;
#X floatatom 319 102 3 0 0 0 - - -, f 3;
#X text 178 101 from;
#X obj 287 245 bng 15 250 50 0 empty empty empty 0 -6 0 10 -262144
-1 -1;
#X obj 349 247 bng 15 250 50 0 empty empty empty 0 -6 0 10 -262144
-1 -1;
#X obj 411 247 bng 15 250 50 0 empty empty empty 0 -6 0 10 -262144
-1 -1;
#X obj 473 247 bng 15 250 50 0 empty empty empty 0 -6 0 10 -262144
-1 -1;
#X obj 287 211 routeOSC /insert /removal /ready /shutdown;
#X obj 29 525 unpack;
#X floatatom 29 552 0 0 0 0 num - -;
#X floatatom 92 553 0 0 0 0 val - -;
#X floatatom 58 491 0 0 0 0 num - -;
#X floatatom 122 491 0 0 0 0 val - -;
#X obj 58 464 unpack;
#X text 326 558 robotcowboy.com | danomatika.com;
#X obj 29 141 routeOSC /joyosc;
#X obj 319 23 declare -path ./joyosc -path mrpeach;
#X floatatom 87 430 0 0 0 0 num - -;
#X floatatom 151 430 0 0 0 0 val - -;
#X obj 87 403 unpack;
#X floatatom 116 370 0 0 0 0 num - -;
#X floatatom 180 370 0 0 0 0 val - -;
#X obj 116 343 unpack;
#X text 326 541 Dan Wilcox 2009 \, 2015;
#X text 135 404 hat (dpad);
#X text 104 465 axis;
#X text 81 526 button;
#X text 164 343 ball (trackball);
#X floatatom 398 422 0 0 0 0 val - -;
#X floatatom 495 369 0 0 0 0 val - -;
#X text 456 338 axis;
#X text 354 392 button;
#X symbolatom 284 422 0 0 0 0 name - -;
#X symbolatom 383 369 0 0 0 0 name - -;
#X obj 29 172 routeOSC /devices /notifications;
#X text 285 182 joyosc deamon events;
#X text 43 277 joystick events;
#X text 289 277 game controller events;
#X obj 284 307 j_controller /js0;
#X obj 29 307 j_joystick /js1;
#X obj 383 339 unpack s f;
#X obj 284 392 unpack s f;
#X obj 121 88 spigot;
#X obj 154 65 tgl 15 0 empty empty empty 17 7 0 10 -262144 -1 -1 1
1;
#X obj 121 114 print;
#X obj 212 56 route from multicast;
#X obj 330 81 tgl 15 0 empty empty empty 17 7 0 10 -262144 -1 -1 0
1;
#X obj 29 23 udpreceive 8880;
#X connect 0 0 19 0;
#X connect 0 0 46 0;
#X connect 1 0 2 0;
#X connect 1 1 3 0;
#X connect 1 2 4 0;
#X connect 1 3 5 0;
#X connect 11 0 7 0;
#X connect 11 1 8 0;
#X connect 11 2 9 0;
#X connect 11 3 10 0;
#X connect 12 0 13 0;
#X connect 12 1 14 0;
#X connect 17 0 15 0;
#X connect 17 1 16 0;
#X connect 19 0 38 0;
#X connect 23 0 21 0;
#X connect 23 1 22 0;
#X connect 26 0 24 0;
#X connect 26 1 25 0;
#X connect 38 0 42 0;
#X connect 38 0 43 0;
#X connect 38 1 11 0;
#X connect 42 0 45 0;
#X connect 42 1 44 0;
#X connect 43 0 12 0;
#X connect 43 1 17 0;
#X connect 43 2 23 0;
#X connect 43 3 26 0;
#X connect 44 0 37 0;
#X connect 44 1 33 0;
#X connect 45 0 36 0;
#X connect 45 1 32 0;
#X connect 46 0 48 0;
#X connect 47 0 46 1;
#X connect 49 0 1 0;
#X connect 49 1 50 0;
#X connect 51 0 0 0;
#X connect 51 1 49 0;
