#N canvas 452 40 565 591 10;
#X declare -path ./joyosc -path mrpeach;
#X obj 29 61 unpackOSC;
#X obj 116 85 unpack 0 0 0 0;
#X floatatom 116 108 3 0 0 0 - - -, f 3;
#X floatatom 151 108 3 0 0 0 - - -, f 3;
#X floatatom 187 108 3 0 0 0 - - -, f 3;
#X floatatom 223 108 3 0 0 0 - - -, f 3;
#X text 83 107 from;
#X obj 287 245 bng 15 250 50 0 empty empty empty 0 -6 0 10 -262144
-1 -1;
#X obj 349 247 bng 15 250 50 0 empty empty empty 0 -6 0 10 -262144
-1 -1;
#X obj 411 247 bng 15 250 50 0 empty empty empty 0 -6 0 10 -262144
-1 -1;
#X obj 473 247 bng 15 250 50 0 empty empty empty 0 -6 0 10 -262144
-1 -1;
#X obj 287 211 routeOSC /insert /removal /ready /shutdown;
#X obj 29 23 udpreceive 8880;
#X obj 29 525 unpack;
#X floatatom 29 552 0 0 0 0 num - -;
#X floatatom 92 553 0 0 0 0 val - -;
#X floatatom 58 491 0 0 0 0 num - -;
#X floatatom 122 491 0 0 0 0 val - -;
#X obj 58 464 unpack;
#X text 326 558 robotcowboy.com | danomatika.com;
#X obj 116 62 route from;
#X obj 29 141 routeOSC /joyosc;
#X obj 319 23 declare -path ./joyosc -path mrpeach;
#X floatatom 87 430 0 0 0 0 num - -;
#X floatatom 151 430 0 0 0 0 val - -;
#X obj 87 403 unpack;
#X floatatom 116 370 0 0 0 0 num - -;
#X floatatom 180 370 0 0 0 0 val - -;
#X obj 116 343 unpack;
#X text 326 541 Dan Wilcox 2009 \, 2015;
#X text 135 404 hat (dpad);
#X text 104 465 axis;
#X text 81 526 button;
#X obj 29 307 j_joystick /js0;
#X text 164 343 ball (trackball);
#X obj 284 307 j_controller /js1;
#X obj 284 392 unpack;
#X floatatom 368 421 0 0 0 0 val - -;
#X floatatom 475 369 0 0 0 0 val - -;
#X obj 383 339 unpack;
#X text 429 340 axis;
#X text 336 393 button;
#X symbolatom 284 422 0 0 0 0 name - -;
#X symbolatom 383 369 0 0 0 0 name - -;
#X obj 29 172 routeOSC /devices /notifications;
#X text 285 182 joyosc deamon events;
#X text 43 277 joystick events;
#X text 289 277 game controller events;
#X connect 0 0 21 0;
#X connect 1 0 2 0;
#X connect 1 1 3 0;
#X connect 1 2 4 0;
#X connect 1 3 5 0;
#X connect 11 0 7 0;
#X connect 11 1 8 0;
#X connect 11 2 9 0;
#X connect 11 3 10 0;
#X connect 12 0 0 0;
#X connect 12 1 20 0;
#X connect 13 0 14 0;
#X connect 13 1 15 0;
#X connect 18 0 16 0;
#X connect 18 1 17 0;
#X connect 20 0 1 0;
#X connect 21 0 44 0;
#X connect 25 0 23 0;
#X connect 25 1 24 0;
#X connect 28 0 26 0;
#X connect 28 1 27 0;
#X connect 33 0 13 0;
#X connect 33 1 18 0;
#X connect 33 2 25 0;
#X connect 33 3 28 0;
#X connect 35 0 36 0;
#X connect 35 1 39 0;
#X connect 36 0 42 0;
#X connect 36 1 37 0;
#X connect 39 0 43 0;
#X connect 39 1 38 0;
#X connect 44 0 33 0;
#X connect 44 0 35 0;
#X connect 44 1 11 0;
