#N canvas 406 115 836 521 10;
#X declare -path ./joyosc;
#X obj 594 272 bng 15 250 50 0 empty empty empty 0 20 0 10 -262144
-1 -1;
#X obj 639 274 bng 15 250 50 0 empty empty empty 0 20 0 10 -262144
-1 -1;
#X obj 685 290 bng 15 250 50 0 empty empty open 0 20 0 10 -262144 -1
-1;
#X obj 731 292 bng 15 250 50 0 empty empty close 0 20 0 10 -262144
-1 -1;
#X obj 29 455 unpack;
#X floatatom 29 482 0 0 0 0 num - -;
#X floatatom 92 483 0 0 0 0 val - -;
#X floatatom 56 421 0 0 0 0 num - -;
#X floatatom 120 421 0 0 0 0 val - -;
#X obj 56 394 unpack;
#X text 616 488 robotcowboy.com | danomatika.com;
#X floatatom 83 360 0 0 0 0 num - -;
#X floatatom 147 360 0 0 0 0 val - -;
#X obj 83 333 unpack;
#X floatatom 110 300 0 0 0 0 num - -;
#X floatatom 169 301 0 0 0 0 xrel - -;
#X text 616 471 Dan Wilcox 2009 \, 2015;
#X text 131 334 hat (dpad);
#X text 102 395 axis;
#X text 81 456 button;
#X text 194 273 ball (trackball);
#X floatatom 438 352 0 0 0 0 val - -;
#X floatatom 529 298 0 0 0 0 val - -;
#X text 490 267 axis;
#X text 394 322 button;
#X symbolatom 324 352 0 0 0 0 name - -;
#X symbolatom 417 298 0 0 0 0 name - -;
#X text 604 213 joyosc deamon events;
#X text 38 214 joystick events;
#X text 327 214 game controller events;
#X obj 417 268 unpack s f;
#X obj 324 322 unpack s f;
#X obj 29 122 route devices notifications;
#X obj 29 91 route joyosc;
#X obj 134 23 tgl 15 0 empty empty print_all_messages 17 7 0 10 -262144
-1 -1 0 1;
#N canvas 0 22 418 314 oscreceive 0;
#X obj 110 131 oscparse;
#X obj 110 160 list trim;
#X obj 130 233 spigot;
#X obj 110 285 outlet;
#X obj 163 199 inlet;
#X obj 130 259 print OSC;
#X msg 175 70 listen 8880;
#X msg 110 69 listen 0;
#X obj 110 43 sel 0;
#X obj 110 104 netreceive -u -b;
#X obj 110 14 inlet;
#X connect 0 0 1 0;
#X connect 1 0 2 0;
#X connect 1 0 3 0;
#X connect 2 0 5 0;
#X connect 4 0 2 1;
#X connect 6 0 9 0;
#X connect 7 0 9 0;
#X connect 8 0 7 0;
#X connect 8 1 6 0;
#X connect 9 0 0 0;
#X connect 10 0 8 0;
#X coords 0 314 1 313 140 40 0;
#X restore 29 52 pd oscreceive 8880;
#X obj 29 22 tgl 15 0 empty empty listen 17 7 0 10 -262144 -1 -1 0
1;
#X obj 319 23 declare -path ./joyosc;
#X obj 110 273 unpack f f f;
#X floatatom 230 301 0 0 0 0 yrel - -;
#X obj 324 237 j_controller gc0;
#X obj 29 237 j_joystick js0;
#X obj 706 326 unpack s f;
#X floatatom 791 356 0 0 0 0 id - -;
#X symbolatom 706 356 0 0 0 0 name - -;
#X obj 594 238 route ready shutdown open close;
#X obj 706 273 t a;
#X connect 4 0 5 0;
#X connect 4 1 6 0;
#X connect 9 0 7 0;
#X connect 9 1 8 0;
#X connect 13 0 11 0;
#X connect 13 1 12 0;
#X connect 30 0 26 0;
#X connect 30 1 22 0;
#X connect 31 0 25 0;
#X connect 31 1 21 0;
#X connect 32 0 40 0;
#X connect 32 0 41 0;
#X connect 32 1 45 0;
#X connect 33 0 32 0;
#X connect 34 0 35 1;
#X connect 35 0 33 0;
#X connect 36 0 35 0;
#X connect 38 0 14 0;
#X connect 38 1 15 0;
#X connect 38 2 39 0;
#X connect 40 0 31 0;
#X connect 40 1 30 0;
#X connect 41 0 4 0;
#X connect 41 1 9 0;
#X connect 41 2 13 0;
#X connect 41 3 38 0;
#X connect 42 0 44 0;
#X connect 42 1 43 0;
#X connect 45 0 0 0;
#X connect 45 1 1 0;
#X connect 45 2 2 0;
#X connect 45 2 46 0;
#X connect 45 3 3 0;
#X connect 45 3 46 0;
#X connect 46 0 42 0;
