#N canvas 697 114 380 491 10;
#X declare -lib mrpeach;
#X obj 21 55 unpackOSC;
#X obj 108 79 unpack 0 0 0 0;
#X floatatom 108 102 3 0 0 0 - - -;
#X floatatom 143 102 3 0 0 0 - - -;
#X floatatom 179 102 3 0 0 0 - - -;
#X floatatom 215 102 3 0 0 0 - - -;
#X text 75 101 from;
#X obj 21 386 bng 15 250 50 0 empty empty empty 0 -6 0 10 -262144 -1
-1;
#X obj 83 388 bng 15 250 50 0 empty empty empty 0 -6 0 10 -262144 -1
-1;
#X obj 145 388 bng 15 250 50 0 empty empty empty 0 -6 0 10 -262144
-1 -1;
#X obj 207 388 bng 15 250 50 0 empty empty empty 0 -6 0 10 -262144
-1 -1;
#X text 17 410 osc receive address for rc-unitd deamon events;
#X text 128 189 change names to match joystick addresses;
#X obj 267 18 import mrpeach;
#X obj 21 352 routeOSC /insert /removal /ready /shutdown;
#X obj 21 17 udpreceive 8880;
#X obj 115 212 unit-joystick /js0;
#X obj 115 284 unpack;
#X floatatom 115 311 5 0 0 0 num - -;
#X floatatom 178 313 6 0 0 0 val - -;
#X floatatom 254 312 5 0 0 0 num - -;
#X floatatom 318 313 5 0 0 0 val - -;
#X obj 254 285 unpack;
#X obj 21 166 routeOSC /notifications /devices;
#X obj 21 135 routeOSC /rc-unitd;
#X text 18 446 Dan Wilcox 2009;
#X text 18 463 robotcowboy.com | danomatika.com;
#X obj 108 56 route from;
#X connect 0 0 24 0;
#X connect 1 0 2 0;
#X connect 1 1 3 0;
#X connect 1 2 4 0;
#X connect 1 3 5 0;
#X connect 14 0 7 0;
#X connect 14 1 8 0;
#X connect 14 2 9 0;
#X connect 14 3 10 0;
#X connect 15 0 0 0;
#X connect 15 1 27 0;
#X connect 16 1 22 0;
#X connect 17 0 18 0;
#X connect 17 1 19 0;
#X connect 22 0 20 0;
#X connect 22 1 21 0;
#X connect 23 0 14 0;
#X connect 23 1 16 0;
#X connect 24 0 23 0;
#X connect 27 0 1 0;
