#N canvas 42 214 457 287 10;
#X text 165 45 has built in gui for simple debugging;
#X symbolatom 29 54 5 0 0 0 btn #0-button -;
#X obj 72 54 nbx 2 14 -1e+37 1e+37 0 0 empty \$0-button-value empty
0 -6 0 10 -228856 -1 -1 0 256;
#X obj 29 32 nbx 2 14 -1e+37 1e+37 0 0 empty \$0-axis axis -25 6 0
10 -204786 -1 -1 0 256;
#X obj 72 34 nbx 3 14 0 100 0 0 empty \$0-axis-value values 0 -6 0
10 -228856 -1 -1 0 256;
#X text 187 168 strip out axis and button events;
#X text 194 208 events are sent out in lists;
#X text 223 253 button # 0 is down aka '1';
#X text 196 230 ex: /button "0 1";
#X text 156 18 parses classic controller data from unit-wiimote;
#X obj 26 112 inlet;
#X text 70 112 incoming OSC ext msgs from unit-wiimote;
#X obj 35 203 outlet;
#X obj 112 207 outlet;
#X text 37 224 axis;
#X text 111 231 buttons;
#X obj 26 166 routeOSC /axis /button;
#X obj 26 139 routeOSC /classic;
#X obj 90 253 s \$0-button;
#X obj 26 253 s \$0-axis;
#X connect 10 0 17 0;
#X connect 16 0 12 0;
#X connect 16 0 19 0;
#X connect 16 1 13 0;
#X connect 16 1 18 0;
#X connect 17 0 16 0;
#X coords 0 -1 1 1 130 75 1 0 0;
