#N canvas 537 101 440 280 10;
#X obj 1 190 print axis;
#X obj 112 189 print button;
#X text -30 8 unit-joystick route object;
#X obj 175 57 r /js0/axis;
#X floatatom 175 117 5 0 0 0 - - -;
#X obj 248 150 r /js0/button;
#X text 163 24 sends named after patch;
#X obj 175 87 unpack f f;
#X floatatom 232 115 5 0 0 0 - - -;
#X floatatom 248 209 5 0 0 0 - - -;
#X obj 248 179 unpack f f;
#X floatatom 305 207 5 0 0 0 - - -;
#X obj 1 35 udpreceive 8880;
#X obj 1 61 unpackOSC;
#X obj 1 88 routeOSC /pd;
#X obj 1 118 routeOSC /devices;
#X obj 1 148 unit-joystick_ /js0;
#X text -19 237 Dan Wilcox 2009;
#X text -19 254 robotcowboy.com | danomatika.com;
#X connect 3 0 7 0;
#X connect 5 0 10 0;
#X connect 7 0 4 0;
#X connect 7 1 8 0;
#X connect 10 0 9 0;
#X connect 10 1 11 0;
#X connect 12 0 13 0;
#X connect 13 0 14 0;
#X connect 14 0 15 0;
#X connect 15 0 16 0;
#X connect 16 0 0 0;
#X connect 16 1 1 0;
