#N canvas 661 202 452 302 10;
#X obj 131 208 outlet;
#X obj 59 49 inlet;
#X obj 226 209 outlet;
#X text 103 49 incoming OSC messages;
#X text 192 95 creation arg : address for the device;
#X text 9 229 button;
#X text 16 12 parses incoming OSC data for OSC from unit_wiimote;
#X obj 10 206 outlet;
#X text 226 223 acceleration;
#X text 237 243 acc list: x y z a roll pitch;
#X text 103 228 ir;
#X text 105 245 i.e. "0 100 200";
#X text 103 263 point 0 at (100 \, 200);
#X text 383 151 events;
#X obj 330 201 outlet;
#X obj 59 140 routeOSC /button /ir /acc;
#X text 280 114 ex: /wm0;
#N canvas 4 48 450 300 creation 0;
#X obj 49 23 loadbang;
#X obj 49 49 symbol \$1;
#X obj 49 100 route bang;
#X msg 106 125 set \$1;
#X obj 49 73 s2l;
#X obj 106 156 outlet;
#X connect 0 0 1 0;
#X connect 1 0 4 0;
#X connect 2 1 3 0;
#X connect 3 0 5 0;
#X connect 4 0 2 0;
#X restore 87 75 pd creation arg;
#X obj 59 100 routeOSC /REPLACE;
#X obj 44 184 s \$1/button;
#X obj 330 177 s \$1/ext;
#N canvas 20 132 450 300 ir 0;
#X obj 46 66 unpack f f f;
#X obj 26 149 s \$1/ir;
#X obj 97 151 s \$1/ir-x;
#X obj 191 154 s \$1/ir-y;
#X obj 46 22 inlet;
#X text 96 22 sends to gui and named sends;
#X obj 83 46 outlet;
#X connect 0 0 1 0;
#X connect 0 1 2 0;
#X connect 0 2 3 0;
#X connect 4 0 0 0;
#X connect 4 0 6 0;
#X restore 131 181 pd ir;
#N canvas 8 69 450 300 acc 0;
#X obj 80 50 inlet;
#X obj 80 97 unpack f f f f f f;
#X obj 35 145 s \$0-acc-x;
#X obj 37 173 s \$1/acc-x;
#X obj 101 203 s \$0-acc-y;
#X obj 122 142 s \$0-acc-z;
#X obj 108 166 s \$1/acc-z;
#X obj 92 226 s \$1/acc-y;
#X obj 188 180 s \$0-acc;
#X obj 186 207 s \$1/acc;
#X obj 256 192 s \$1/acc-roll;
#X obj 255 166 s \$0-acc-roll;
#X obj 271 116 s \$0-acc-pitch;
#X obj 272 142 s \$1/acc-pitch;
#X text 21 15 unpack acc list and send to gui / named sends;
#X obj 113 73 outlet;
#X connect 0 0 1 0;
#X connect 0 0 15 0;
#X connect 1 0 2 0;
#X connect 1 0 3 0;
#X connect 1 1 4 0;
#X connect 1 1 7 0;
#X connect 1 2 5 0;
#X connect 1 2 6 0;
#X connect 1 3 8 0;
#X connect 1 3 9 0;
#X connect 1 4 11 0;
#X connect 1 4 10 0;
#X connect 1 5 12 0;
#X connect 1 5 13 0;
#X restore 226 184 pd acc;
#X connect 1 0 18 0;
#X connect 15 0 7 0;
#X connect 15 0 19 0;
#X connect 15 1 21 0;
#X connect 15 2 22 0;
#X connect 15 3 20 0;
#X connect 15 3 14 0;
#X connect 17 0 18 0;
#X connect 18 0 15 0;
#X connect 21 0 0 0;
#X connect 22 0 2 0;
#X coords 0 0 1 1 140 170 0;
