#N canvas 231 97 760 544 10;
#X floatatom 357 173 5 0 0 0 - - -;
#X floatatom 317 233 5 0 0 0 - - -;
#X text 10 11 unit-wiimote object;
#X text 117 86 send to /pd/devices/wm0;
#X obj 258 404 unpack f f f f f f;
#X floatatom 258 448 5 0 0 0 - - -;
#X floatatom 300 448 5 0 0 0 - - -;
#X floatatom 340 448 5 0 0 0 - - -;
#X floatatom 379 448 5 0 0 0 - - -;
#X floatatom 416 448 5 0 0 0 - - -;
#X floatatom 458 448 5 0 0 0 - - -;
#X text 276 467 acc: x y z acc roll pitch;
#X obj 139 434 unpack f f f;
#X floatatom 139 462 5 0 0 0 - - -;
#X floatatom 177 463 5 0 0 0 - - -;
#X floatatom 216 463 5 0 0 0 - - -;
#X text 151 481 ir: num x y;
#X text 328 119 example sends based on name;
#X obj 24 87 routeOSC /pd;
#X obj 24 113 routeOSC /devices;
#X obj 24 37 udpreceive 8880;
#X obj 24 62 unpackOSC;
#X obj 317 204 r /wm0/acc;
#X obj 24 400 unpack s f;
#X symbolatom 24 428 10 0 0 0 - - -;
#X floatatom 94 428 5 0 0 0 - - -;
#X text 20 451 button: name val;
#X obj 448 191 r /wm0/acc-z;
#X obj 357 144 r /wm0/ir-x;
#X obj 383 250 r /wm0/roll;
#X floatatom 448 219 5 0 0 0 - - -;
#X floatatom 383 278 5 0 0 0 - - -;
#X obj 530 449 unpack f f;
#X floatatom 530 479 5 0 0 0 - - -;
#X floatatom 587 480 5 0 0 0 - - -;
#X floatatom 710 478 5 0 0 0 - - -;
#X text 531 340 classic controller;
#X text 656 516 button: num val;
#X text 529 500 axis: num val;
#X obj 653 453 unpack s f;
#X symbolatom 653 498 10 0 0 0 - - -;
#X obj 24 139 unit-wiimote /wm0;
#X obj 530 364 unit-classic;
#X connect 4 0 5 0;
#X connect 4 1 6 0;
#X connect 4 2 7 0;
#X connect 4 3 8 0;
#X connect 4 4 9 0;
#X connect 4 5 10 0;
#X connect 12 0 13 0;
#X connect 12 1 14 0;
#X connect 12 2 15 0;
#X connect 18 0 19 0;
#X connect 19 0 41 0;
#X connect 20 0 21 0;
#X connect 21 0 18 0;
#X connect 22 0 1 0;
#X connect 23 0 24 0;
#X connect 23 1 25 0;
#X connect 27 0 30 0;
#X connect 28 0 0 0;
#X connect 29 0 31 0;
#X connect 32 0 33 0;
#X connect 32 1 34 0;
#X connect 39 0 40 0;
#X connect 39 1 35 0;
#X connect 41 0 23 0;
#X connect 41 1 12 0;
#X connect 41 2 4 0;
#X connect 41 3 42 0;
#X connect 42 0 32 0;
#X connect 42 1 39 0;
