#N canvas 234 221 488 430 10;
#X text 172 21 parses incoming OSC data for OSC from unit_wiimote;
#X text 173 56 has built in gui for simple debugging;
#X obj 97 27 nbx 2 14 -1e+37 1e+37 0 0 empty \$0-button_val empty -20
6 0 10 -261234 -1 -1 0 256;
#X obj 20 55 nbx 2 14 -1e+37 1e+37 0 0 empty \$0-ir ir -15 6 0 10 -204786
-1 -1 0 256;
#X obj 54 55 nbx 3 14 -1e+37 1e+37 0 0 empty \$0-ir-x ir-x 0 -6 0 10
-204786 -1 -1 0 256;
#X obj 96 55 nbx 3 14 -1e+37 1e+37 0 0 empty \$0-ir-y ir-y 0 -6 0 10
-204786 -1 -1 0 256;
#X obj 54 107 nbx 7 14 -1e+37 1e+37 0 0 empty \$0-acc acc -20 6 0 10
-203904 -1 -1 0 256;
#X obj 54 83 nbx 3 14 -1e+37 1e+37 0 0 empty \$0-acc-x acc-x 0 -6 0
10 -203904 -1 -1 0 256;
#X obj 96 84 nbx 3 14 -1e+37 1e+37 0 0 empty \$0-acc-y acc-y 0 -6 0
10 -203904 -1 -1 0 256;
#X obj 11 82 nbx 3 14 -1e+37 1e+37 0 0 empty \$0-acc-z acc-z 0 -6 0
10 -203904 -1 -1 0 256;
#X obj 54 147 nbx 7 14 -1e+37 1e+37 0 0 empty \$0-acc-pitch pitch -35
6 0 10 -203904 -1 -1 0 256;
#X obj 54 127 nbx 7 14 -1e+37 1e+37 0 0 empty \$0-acc-roll roll -25
6 0 10 -203904 -1 -1 0 256;
#X symbolatom 54 27 5 0 0 0 button #0-button_name -;
#X obj 139 344 outlet;
#X obj 67 185 inlet;
#X obj 234 345 outlet;
#X text 111 185 incoming OSC messages;
#X text 200 231 creation arg : address for the device;
#X text 30 364 button;
#X obj 31 341 outlet;
#X text 234 359 acceleration;
#X text 245 379 acc list: x y z a roll pitch;
#X text 111 364 ir;
#X text 113 381 i.e. "0 100 200";
#X text 111 399 point 0 at (100 \, 200);
#X text 391 287 events;
#X obj 338 337 outlet;
#X obj 67 276 routeOSC /button /ir /acc;
#X text 288 250 ex: /wm0;
#N canvas 4 48 170 187 creation 0;
#X obj 21 12 loadbang;
#X obj 21 38 symbol \$1;
#X obj 21 89 route bang;
#X msg 78 114 set \$1;
#X obj 21 62 s2l;
#X obj 78 145 outlet;
#X connect 0 0 1 0;
#X connect 1 0 4 0;
#X connect 2 1 3 0;
#X connect 3 0 5 0;
#X connect 4 0 2 0;
#X restore 95 211 pd creation arg;
#X obj 67 236 routeOSC /REPLACE;
#X obj 338 313 s \$1/ext;
#N canvas 20 132 246 179 ir 0;
#X obj 16 62 unpack f f f;
#X obj 16 152 s \$1/ir;
#X obj 50 125 s \$1/ir-x;
#X obj 85 95 s \$1/ir-y;
#X obj 16 18 inlet;
#X text 66 18 sends to gui and named sends;
#X obj 53 42 outlet;
#X connect 0 0 1 0;
#X connect 0 1 2 0;
#X connect 0 2 3 0;
#X connect 4 0 0 0;
#X connect 4 0 6 0;
#X restore 139 317 pd ir;
#N canvas 8 69 450 300 acc 0;
#X obj 80 50 inlet;
#X obj 80 97 unpack f f f f f f;
#X obj 35 145 s \$0-acc-x;
#X obj 37 173 s \$1/acc-x;
#X obj 101 203 s \$0-acc-y;
#X obj 122 142 s \$0-acc-z;
#X obj 108 166 s \$1/acc-z;
#X obj 92 226 s \$1/acc-y;
#X obj 188 180 s \$0-acc;
#X obj 186 207 s \$1/acc;
#X obj 256 192 s \$1/acc-roll;
#X obj 255 166 s \$0-acc-roll;
#X obj 271 116 s \$0-acc-pitch;
#X obj 272 142 s \$1/acc-pitch;
#X text 21 15 unpack acc list and send to gui / named sends;
#X obj 113 73 outlet;
#X connect 0 0 1 0;
#X connect 0 0 15 0;
#X connect 1 0 2 0;
#X connect 1 0 3 0;
#X connect 1 1 4 0;
#X connect 1 1 7 0;
#X connect 1 2 5 0;
#X connect 1 2 6 0;
#X connect 1 3 8 0;
#X connect 1 3 9 0;
#X connect 1 4 11 0;
#X connect 1 4 10 0;
#X connect 1 5 12 0;
#X connect 1 5 13 0;
#X restore 234 320 pd acc;
#N canvas 12 90 355 219 button 0;
#X obj 62 38 inlet;
#X text 27 13 unpack button messages and send to gui / named sends
;
#X obj 96 70 unpack s f;
#X obj 96 145 s \$0-button_name;
#X obj 153 99 s \$0-button_val;
#X obj 96 117 symbol;
#X obj 62 176 outlet;
#X obj 182 68 s \$1/button;
#X obj 3 72 loadbang;
#X connect 0 0 2 0;
#X connect 0 0 6 0;
#X connect 0 0 7 0;
#X connect 2 0 5 0;
#X connect 2 1 4 0;
#X connect 5 0 3 0;
#X connect 8 0 5 0;
#X restore 31 316 pd button;
#X connect 14 0 30 0;
#X connect 27 0 34 0;
#X connect 27 1 32 0;
#X connect 27 2 33 0;
#X connect 27 3 31 0;
#X connect 27 3 26 0;
#X connect 29 0 30 0;
#X connect 30 0 27 0;
#X connect 32 0 13 0;
#X connect 33 0 15 0;
#X connect 34 0 19 0;
#X coords 0 -1 1 1 140 170 1 0 0;
