#N canvas 327 265 460 281 10;
#X text 139 30 parses incoming OSC data for OSC from unit_joysticks
;
#X text 158 81 incoming OSC messages;
#X text 160 136 creation arg : address for the device;
#X text 168 204 events are sent out in lists;
#X text 197 249 button # 0 is down aka '1';
#X text 170 226 ex: /button "0 1";
#X text 225 156 ex: /joy1;
#X obj 1 16 cnv 15 128 43 empty empty empty 20 12 0 14 -233017 -66577
0;
#X obj 29 41 nbx 2 14 -1e+37 1e+37 0 0 empty \$0-button btn -20 6 0
10 -261234 -1 -1 0 256;
#X obj 64 41 nbx 5 14 -1e+37 1e+37 0 0 empty \$0-button-value empty
0 -6 0 10 -228856 -1 -1 0 256;
#X obj 29 21 nbx 2 14 -1e+37 1e+37 0 0 empty \$0-axis axis -25 6 0
10 -204786 -1 -1 0 256;
#X obj 64 22 nbx 6 14 -1e+37 1e+37 0 0 empty \$0-axis-value empty 0
-6 0 10 -228856 -1 -1 0 256;
#X obj 15 84 inlet;
#X obj 79 252 outlet;
#X obj 15 180 routeOSC /axis /button;
#N canvas 4 48 450 300 creation 0;
#X obj 49 23 loadbang;
#X obj 49 49 symbol \$1;
#X obj 49 100 route bang;
#X msg 106 125 set \$1;
#X obj 49 73 s2l;
#X obj 106 156 outlet;
#X connect 0 0 1 0;
#X connect 1 0 4 0;
#X connect 2 1 3 0;
#X connect 3 0 5 0;
#X connect 4 0 2 0;
#X restore 52 109 pd creation arg;
#X obj 15 137 routeOSC /REPLACE;
#N canvas 702 431 201 175 button 0;
#X obj 13 16 inlet;
#X obj 13 151 outlet;
#X obj 29 65 unpack f f;
#X obj 29 119 s \$0-button;
#X obj 86 95 s \$0-button-value;
#X obj 116 66 s \$1/button;
#X connect 0 0 2 0;
#X connect 0 0 5 0;
#X connect 0 0 1 0;
#X connect 2 0 3 0;
#X connect 2 1 4 0;
#X restore 79 220 pd button;
#N canvas 537 450 210 193 axis 0;
#X obj 16 6 inlet;
#X obj 50 71 unpack f f;
#X obj 50 129 s \$0-axis;
#X obj 107 102 s \$0-axis-value;
#X obj 16 155 outlet;
#X obj 58 40 s \$1/axis;
#X connect 0 0 1 0;
#X connect 0 0 5 0;
#X connect 0 0 4 0;
#X connect 1 0 2 0;
#X connect 1 1 3 0;
#X restore 15 220 pd axis;
#X obj 15 252 outlet;
#X connect 12 0 16 0;
#X connect 14 0 18 0;
#X connect 14 1 17 0;
#X connect 15 0 16 0;
#X connect 16 0 14 0;
#X connect 17 0 13 0;
#X connect 18 0 19 0;
#X coords 0 -1 1 1 130 62 1 0 0;
